<svg xmlns="http://www.w3.org/2000/svg" xmlns:xlink="http://www.w3.org/1999/xlink" width="215" zoomAndPan="magnify" viewBox="0 0 162 149.04" height="189" preserveAspectRatio="xMidYMid meet" version="1.0"><defs><clipPath id="561d1c7d3e"><path d="M 42.878906 55.855469 L 110.535156 55.855469 L 110.535156 69.519531 L 42.878906 69.519531 Z M 42.878906 55.855469 " clip-rule="nonzero"/></clipPath><clipPath id="23b2684538"><path d="M 42.878906 55.855469 L 47 55.855469 L 47 57 L 42.878906 57 Z M 42.878906 55.855469 " clip-rule="nonzero"/></clipPath><clipPath id="92aeffc3ff"><path d="M 41.984375 54.960938 L 111.289062 54.960938 L 111.289062 70.414062 L 41.984375 70.414062 Z M 41.984375 54.960938 " clip-rule="nonzero"/></clipPath></defs><g clip-path="url(#561d1c7d3e)"><path fill="#ff99d8" d="M 111.429688 54.964844 C 110.53125 54.964844 109.636719 54.964844 108.742188 54.964844 C 106.871094 54.964844 105 54.964844 103.128906 54.96875 C 97.386719 54.964844 91.644531 54.964844 85.902344 54.964844 C 85.664062 54.964844 85.328125 54.964844 85.199219 54.964844 C 84.25 54.960938 83.128906 54.964844 82.078125 54.964844 C 79.308594 54.964844 76.539062 54.964844 73.769531 54.964844 C 70.382812 54.964844 67 54.964844 63.613281 54.964844 C 60.355469 54.960938 57.09375 54.960938 53.835938 54.960938 C 49.886719 54.960938 45.9375 54.960938 41.988281 54.960938 C 41.988281 57.691406 41.988281 60.425781 41.988281 63.15625 C 41.984375 65.574219 41.984375 67.992188 41.984375 70.410156 C 45.171875 70.410156 48.355469 70.410156 51.539062 70.410156 C 56.257812 70.410156 60.976562 70.410156 65.691406 70.414062 C 71.8125 70.410156 77.933594 70.410156 84.050781 70.410156 C 89.75 70.410156 95.441406 70.40625 101.066406 70.40625 C 102.535156 70.402344 103.980469 70.402344 105.433594 70.398438 C 105.597656 70.398438 105.726562 70.398438 105.875 70.398438 C 106.636719 70.394531 107.398438 70.390625 108.195312 70.390625 C 107.839844 70.386719 107.417969 70.386719 106.992188 70.386719 L 106.953125 70.386719 C 107.609375 70.382812 108.265625 70.382812 109.011719 70.382812 C 108.433594 70.378906 107.90625 70.378906 107.28125 70.375 C 107.914062 70.371094 108.511719 70.363281 109.113281 70.355469 C 108.929688 70.355469 108.597656 70.355469 108.125 70.355469 C 108.648438 70.351562 109.101562 70.347656 109.472656 70.347656 C 110.003906 70.34375 110.511719 70.339844 110.03125 70.332031 C 109.832031 70.332031 109.9375 70.328125 109.890625 70.324219 C 109.828125 70.320312 109.851562 70.316406 109.660156 70.316406 C 109.203125 70.308594 109.390625 70.296875 109.117188 70.289062 C 109.0625 70.289062 109.484375 70.285156 109.710938 70.285156 C 109.796875 70.285156 109.953125 70.285156 110.09375 70.285156 C 109.625 70.28125 109.203125 70.28125 108.8125 70.28125 C 109.015625 70.265625 109.820312 70.25 108.792969 70.234375 C 109.53125 70.230469 110.054688 70.230469 111.019531 70.230469 C 110.132812 70.226562 109.59375 70.226562 108.914062 70.222656 C 109.710938 70.21875 110.09375 70.21875 110.351562 70.214844 C 110.0625 70.214844 109.597656 70.210938 109.703125 70.210938 C 110.242188 70.203125 109.21875 70.203125 109.128906 70.203125 C 110.972656 70.203125 108.421875 70.191406 109.816406 70.191406 C 110.101562 70.1875 109.863281 70.183594 109.574219 70.179688 C 110.15625 70.175781 110.683594 70.175781 111.253906 70.171875 C 111.257812 70.222656 111.261719 70.253906 111.261719 70.269531 C 111.265625 70.28125 111.265625 70.238281 111.265625 70.171875 C 111.277344 70.171875 111.285156 70.171875 111.296875 70.171875 C 111.285156 70.171875 111.277344 70.171875 111.265625 70.171875 C 111.269531 70.128906 111.269531 70.078125 111.269531 70.027344 C 111.269531 69.960938 111.273438 69.894531 111.273438 69.839844 C 111.273438 69.816406 111.273438 69.796875 111.273438 69.777344 C 111.277344 69.761719 111.277344 69.753906 111.277344 69.753906 C 111.28125 69.753906 111.28125 69.738281 111.285156 69.648438 C 111.289062 69.554688 111.292969 69.382812 111.292969 69.070312 C 111.296875 68.710938 111.308594 68.828125 111.3125 69.3125 C 111.3125 69.585938 111.316406 69.714844 111.316406 69.777344 C 111.316406 69.835938 111.320312 69.832031 111.320312 69.835938 C 111.324219 69.839844 111.324219 69.78125 111.328125 69.683594 C 111.328125 69.582031 111.332031 69.441406 111.332031 69.289062 C 111.335938 68.972656 111.339844 68.589844 111.34375 68.308594 C 111.34375 68.207031 111.34375 68.027344 111.347656 68.035156 C 111.351562 68.066406 111.355469 68.164062 111.359375 68.230469 C 111.363281 66.503906 111.367188 66.257812 111.378906 66.347656 C 111.382812 65.671875 111.382812 64.617188 111.390625 64.542969 C 111.390625 64.804688 111.390625 65.101562 111.394531 65.527344 C 111.398438 64.390625 111.398438 63.378906 111.402344 62.273438 C 111.402344 62.582031 111.40625 62.804688 111.40625 63.085938 C 111.40625 62.378906 111.40625 61.746094 111.410156 61.117188 C 111.410156 60.898438 111.410156 60.511719 111.410156 60.503906 C 111.414062 60.472656 111.414062 59.769531 111.414062 59.171875 C 111.421875 58.925781 111.425781 58.347656 111.425781 56.695312 C 111.425781 56.121094 111.425781 55.542969 111.429688 54.964844 Z M 58.273438 70.140625 C 58.980469 70.136719 59.667969 70.136719 60.269531 70.136719 L 60.328125 70.140625 C 59.757812 70.140625 59.191406 70.140625 58.273438 70.140625 Z M 110.648438 70.15625 C 110.464844 70.152344 110.121094 70.144531 110.273438 70.140625 C 110.421875 70.136719 110.046875 70.132812 109.453125 70.132812 C 108.746094 70.128906 107.9375 70.128906 107.183594 70.128906 C 105.3125 70.128906 103.453125 70.128906 101.582031 70.132812 C 97.65625 70.132812 93.714844 70.132812 89.804688 70.136719 C 84.1875 70.136719 78.582031 70.136719 72.960938 70.136719 C 71.160156 70.136719 69.363281 70.136719 67.558594 70.136719 C 67.261719 70.136719 66.78125 70.136719 66.671875 70.136719 C 66.21875 70.140625 65.6875 70.140625 65.140625 70.136719 C 64.777344 70.136719 64.386719 70.132812 64.082031 70.132812 C 62.503906 70.136719 60.984375 70.136719 59.414062 70.132812 C 59.175781 70.132812 58.773438 70.132812 58.429688 70.132812 C 58.085938 70.136719 57.820312 70.136719 57.8125 70.136719 C 57.980469 70.144531 57.085938 70.140625 56.667969 70.140625 C 54.429688 70.140625 52.191406 70.140625 49.953125 70.140625 C 47.386719 70.140625 44.820312 70.140625 42.257812 70.140625 L 42.257812 70.132812 C 42.257812 70.132812 42.261719 70.132812 42.261719 70.132812 C 42.261719 70.132812 42.257812 70.132812 42.257812 70.132812 C 42.257812 67.25 42.257812 64.363281 42.257812 61.480469 C 42.257812 60.53125 42.257812 59.578125 42.257812 58.628906 L 42.257812 55.234375 L 48.015625 55.234375 C 48.113281 55.234375 48.210938 55.234375 48.210938 55.234375 C 48.246094 55.234375 48.273438 55.238281 48.300781 55.238281 L 48.632812 55.238281 C 48.742188 55.238281 48.855469 55.234375 49 55.230469 C 49.617188 55.234375 50.140625 55.234375 50.691406 55.234375 C 51.320312 55.234375 51.972656 55.234375 52.621094 55.234375 C 52.777344 55.234375 52.953125 55.234375 53.113281 55.234375 C 54.441406 55.238281 55.777344 55.238281 57.136719 55.234375 C 58.066406 55.234375 59.027344 55.234375 59.972656 55.234375 C 60.574219 55.234375 61.179688 55.234375 61.78125 55.234375 C 64.734375 55.234375 67.703125 55.234375 70.636719 55.234375 C 73.691406 55.238281 76.746094 55.238281 79.804688 55.238281 C 82.28125 55.238281 84.816406 55.238281 87.324219 55.238281 C 90.914062 55.238281 94.503906 55.238281 98.09375 55.238281 C 102.449219 55.238281 106.800781 55.238281 111.15625 55.238281 C 111.160156 58.683594 111.160156 62.132812 111.160156 65.582031 C 111.160156 66.75 111.160156 67.859375 111.164062 68.824219 C 111.167969 68.34375 111.164062 66.917969 111.171875 66.542969 C 111.171875 67.335938 111.171875 68.089844 111.171875 68.808594 C 111.175781 69.558594 111.183594 68.890625 111.183594 69.972656 C 111.1875 70.03125 111.191406 70.089844 111.195312 70.136719 C 111.195312 69.363281 111.199219 68.78125 111.199219 68.25 C 111.203125 68.367188 111.207031 68.464844 111.214844 68.558594 C 111.214844 69.144531 111.214844 70.257812 111.222656 70.152344 C 111.222656 69.710938 111.222656 69.269531 111.222656 68.90625 C 111.226562 69.023438 111.230469 69.109375 111.230469 69.214844 C 111.234375 69.289062 111.234375 69.332031 111.238281 69.496094 C 111.242188 69.835938 111.25 70.054688 111.253906 70.171875 C 111.039062 70.167969 110.8125 70.160156 110.648438 70.15625 Z M 110.648438 70.15625 " fill-opacity="1" fill-rule="nonzero"/></g><g clip-path="url(#23b2684538)"><path fill="#ff99d8" d="M 42.261719 55.238281 C 42.265625 55.722656 42.265625 56.160156 42.265625 56.507812 L 42.265625 55.238281 L 46.710938 55.238281 C 46.082031 55.238281 45.300781 55.238281 44.496094 55.234375 C 43.738281 55.234375 42.953125 55.238281 42.261719 55.238281 Z M 42.261719 55.238281 " fill-opacity="1" fill-rule="nonzero"/></g><g clip-path="url(#92aeffc3ff)"><path stroke-linecap="butt" transform="matrix(0.7452, 0, 0, 0.7452, 41.985344, 54.96092)" fill="none" stroke-linejoin="miter" d="M -0.00130085 0.0000230737 L -0.00130085 20.736907 L 93.188876 20.736907 L 93.188876 0.0000230737 L -0.00130085 0.0000230737 " stroke="#ff99d8" stroke-width="22" stroke-opacity="1" stroke-miterlimit="4"/></g></svg>