<svg width="188" height="82" viewBox="0 0 188 82" fill="none" xmlns="http://www.w3.org/2000/svg">
<mask id="mask0_295_97" style="mask-type:luminance" maskUnits="userSpaceOnUse" x="0" y="5" width="188" height="77">
<path d="M0 5H187.807V81.5104H0V5Z" fill="white"/>
</mask>
<g mask="url(#mask0_295_97)">
<path d="M75.6875 19.9427C75.3959 19.3646 74.7136 19.5 74.1198 19.4375C73.2136 19.349 72.2657 19.3125 71.6563 18.6094C72.9948 17.6406 73.6771 18.9271 74.849 18.9896C75.1198 18.7917 75.4636 18.5365 76.0938 18.0781C73.349 17.7865 71.0313 17.5729 68.9584 18.9323C68.6459 19.1354 68.224 19.2917 67.8282 19.3542C67.3386 19.4219 66.7188 19.5 66.3438 19.3333C66.0052 19.1823 65.9167 18.7031 65.7292 18.3906C64.3229 17.974 63.7292 19.1198 62.6511 19.5104C62.4427 19.3594 62.2552 19.2031 62.0417 19.0677C61.2604 18.5833 60.4167 18.4375 59.5209 19.0156C58.3021 19.7969 57.0729 20.5104 55.3386 20.5885C55.6354 20.1198 55.8594 19.776 56.2604 19.1563C55.4271 19.4323 54.8802 19.5781 54.375 19.7917C53.9115 19.9896 53.4896 20.2552 52.9167 20.5625C52.0625 19.6094 50.7761 19.7656 49.6563 20.224C48.6459 20.6302 47.8177 21.3385 47.0261 21.849C45.7136 22.125 44.4896 22.3906 43.2709 22.6563C43.1823 22.6771 43.0782 22.6354 42.9792 22.6198C42.224 22.3698 43.125 21.8854 42.7865 21.474C40.0938 22.0781 37.3594 22.7344 34.6354 23.4271C34.6927 24.5677 33.4584 25.2292 32.9167 26.3177C31.7552 25.8542 31.1563 25.224 30.7604 24.3385C29.875 24.6563 29.1094 24.9323 28.9844 24.9792C27.4896 25.8698 28.4011 27.224 26.7396 27.4896C25.8959 27.0781 26.5469 26.2969 26.1407 25.6667C24.6771 26.0885 23.2032 26.6354 21.6875 26.9583C20.3698 27.2396 20.0104 28.3281 18.7344 28.8125C18.0157 28.8333 17.1042 28.8646 15.9427 28.9063C16.8802 27.8021 17.75 26.8802 19.3386 26.6406C21.75 26.276 23.9167 25.1719 26.2552 24.5938C26.9636 24.4167 27.6407 24.0573 28.3542 23.9271C31.1459 23.4167 33.8229 22.5313 36.5677 21.8698C37.2709 21.7031 38.0052 21.651 38.7292 21.5625C39.0365 21.5208 39.4219 21.599 39.6511 21.4792C41.599 20.4375 43.9792 20.7292 45.9584 19.7813C46.4063 19.5677 46.9688 19.4479 47.4792 19.3958C50.9375 19.0729 54.3282 18.3073 57.7657 17.974C62.2396 17.5365 66.7032 16.8333 71.2032 16.8594C72.0365 16.8594 72.8854 16.8229 73.7084 16.901C75.0052 17.0208 76.2032 16.8385 77.3125 16.2083C78.4219 17.0365 79.599 17.1354 80.9063 16.8646C83.4896 16.3281 86.1042 16.526 88.7136 16.6042C90.4896 16.6563 92.2761 16.6146 94.0521 16.6667C95.4115 16.7083 96.7657 16.8229 98.125 16.8646C100.313 16.9375 102.521 17.1771 104.365 15.8854C104.682 15.6615 105.339 15.7188 105.88 15.6458C106.177 15.9844 106.589 16.2448 106.604 16.5104C106.641 17.4896 107.427 17.7448 108.448 17.8073C109.073 17.8438 109.703 17.8281 110.323 17.7865C112.693 17.6302 115.042 17.6094 117.318 18.4323C117.828 18.6198 118.557 18.526 119.146 18.4323C120.417 18.2292 121.594 18.349 122.813 18.7917C124.5 19.4063 124.516 19.3594 126.641 18.5677C126.927 18.7031 127.406 18.8073 127.615 19.0469C128.38 19.9167 129.49 20.2031 130.641 20.1875C132.141 20.1615 133.526 20.5677 134.953 20.8542C138.224 21.5104 141.505 22.1615 144.745 22.9375C148.182 23.7656 151.677 24.3229 155.099 25.1927C157.521 25.8073 160.005 26.0313 162.443 26.6354C164.255 27.0885 165.958 27.8333 167.818 28.2031C170.688 28.776 173.516 29.651 176.333 30.5052C177.328 30.8073 178.276 31.25 179.323 31.6667C178.594 32.2917 177.156 31.1615 176.745 32.25C176.698 32.375 176.01 32.3333 175.625 32.2813C174.927 32.1875 174.234 32.0208 173.318 31.849C174.531 32.7917 174.531 32.776 177.219 33.5156C178.521 33.875 179.818 34.2656 181.068 34.6406C181.172 35.1771 181.25 35.5885 181.344 36.1042C183.417 37.0104 185.99 37.099 187.693 38.8229C187.781 38.9167 187.688 39.125 187.672 39.4375C185.229 39.2031 183.047 37.9167 180.677 37.4323C178.37 36.9635 176.094 36.2604 173.776 35.6979C173.677 36.4375 174.24 36.6927 174.802 36.849C176.38 37.2813 177.906 37.7969 179.432 38.401C182.193 39.4948 184.792 40.8333 187.51 42.1719C187.286 42.3438 187.172 42.4948 187.094 42.4792C183.833 41.599 180.479 41.3698 177.292 40.1563C177.01 40.0469 176.693 39.9688 176.401 39.9635C173.646 39.9479 171.042 39.0469 168.385 38.375C168.109 38.3073 167.818 38.2813 167.484 38.4479C169.786 39.0365 172.068 39.7448 174.375 40.2865C176.734 40.8333 178.182 42.75 180.458 43.3854C179 43.0573 177.542 42.7396 176.083 42.4375C176.063 42.526 176.042 42.6146 176.021 42.7083C176.74 42.9271 177.474 43.1302 178.182 43.3906C178.839 43.6302 179.792 43.8177 180.057 44.2292C180.823 45.4427 182.349 45.7188 183.583 46.7031C183.052 46.8906 182.672 47.0365 182.286 47.1667C181.552 47.4271 180.49 46.9688 179.87 47.7552C180.448 48.099 181 48.4219 181.792 48.8958C181.036 48.9688 180.589 49.0104 180.151 49.0521C179.995 50.5573 181.995 50.401 182.615 51.3177C182.563 51.875 182.042 51.6198 181.755 51.5625C180.208 51.2708 178.672 50.9323 177.125 50.6563C176.026 50.4583 174.938 49.9427 173.859 50.625C173.479 50.8594 172.599 50.5521 171.906 50.4896C172.464 51.4115 173.406 51.5365 174.328 51.8177C176.458 52.4792 178.563 53.2448 180.646 54.0625C181.573 54.4271 181.615 55.0625 181.208 55.776C180.307 56.0521 179.38 55.75 178.448 55.5156C173.755 54.3542 169.047 53.3281 164.333 52.4583C163.927 52.3802 163.5 52.4427 163.104 52.6094C166.484 53.4531 169.854 54.375 173.224 55.3385C174.521 55.7083 175.828 56.1094 177.146 56.3281C178.891 56.6198 180.115 57.4948 181.172 58.7031C180.307 59.099 179.479 58.8229 178.63 58.6302C176.865 58.224 175.104 57.8646 173.302 57.875C172.49 57.875 171.615 57.6198 170.807 57.3594C167.609 56.3333 164.333 55.875 161.052 55.6979C160.828 55.6875 160.609 55.8646 160.422 55.9427C160.464 56.474 160.896 56.5104 161.219 56.5677C164.188 57.0885 167.151 57.6406 170.12 58.25C170.49 58.3229 170.88 58.3385 171.234 58.4479C173.5 59.1406 175.745 59.8802 177.984 60.651C177.99 60.6979 178.005 60.776 177.99 60.7813C177.906 60.8125 177.813 60.8542 177.729 60.8333C175.688 60.4271 173.656 59.9896 171.615 59.6927C167.151 59.0417 162.797 57.7656 158.328 57.3698C156.135 57.1771 153.964 56.4948 151.771 56.1198C150.24 55.8594 148.693 55.6354 147.156 55.526C146.12 55.4583 145.177 55.3229 144.234 54.8333C143.526 54.4635 142.651 54.0781 141.901 54.1146C140.214 54.2031 138.625 53.7083 136.984 53.5677C136.286 53.5104 135.578 53.2292 134.911 52.9635C133.839 52.5365 132.828 52.4635 131.677 52.6875C129.339 53.1458 127.042 52.7656 124.865 51.7813C123.417 52.4167 121.854 52.6354 120.229 51.8594C120.083 51.7865 119.823 51.7865 119.693 51.8594C119.484 51.9688 119.307 52.1458 119.198 52.3333C119.167 52.3958 119.391 52.5833 119.516 52.6979C119.573 52.7552 119.667 52.8073 119.755 52.8229C120.911 53.0417 122.073 52.6146 123.271 53.0833C124.349 53.5104 125.526 53.6198 126.755 53.6198C128.38 53.625 130.016 54.026 131.578 54.2656C131.641 54.6094 131.677 54.8281 131.714 55.0417C131.927 55.0938 132.156 55.224 132.271 55.1719C135.177 53.8646 138 54.9167 140.74 55.9635C141.104 56.1042 141.333 56.5469 141.526 56.75C142.625 57.0625 142.828 55.7135 143.849 56.151C144.51 56.4323 145.214 56.6406 145.896 56.8906C146.057 56.9479 146.214 57.0938 146.37 57.099C149.406 57.1615 152.339 58.3333 155.406 58.25C155.932 58.2396 156.49 58.401 157.016 58.5469C158 58.8177 158.969 59.1302 159.943 59.4427C160.38 59.5885 160.953 59.6406 161.219 59.9167C162.328 61.0677 163.464 61.3021 164.896 60.6667C165.182 60.5365 165.99 60.7552 166.172 61.0156C166.974 62.1615 168.208 62.1875 169.37 62.2865C170.568 62.3958 171.656 62.7865 173.021 63.1615C172.474 63.3854 172.182 63.5052 171.891 63.6198C171.688 64.526 173.125 64.2344 173.271 65.1198C167.563 64.0365 161.984 63.1823 156.406 62.5156C156.286 63.3594 156.927 63.3802 157.406 63.4896C158.469 63.7396 159.557 63.8958 160.599 64.2188C161.495 64.4948 162.344 64.9375 163.156 65.474C162.661 65.3854 162.13 65.1823 161.667 65.2448C161.297 65.3021 161.052 65.776 160.672 65.8854C160.286 65.9948 159.557 66.0469 159.406 65.8594C158.245 64.401 156.49 64.9688 155.021 64.5885C155.318 64.724 155.615 64.8594 155.911 64.9948C153.495 65.0104 152.354 64.8073 150.141 63.9531C149.99 63.9479 149.839 63.9323 149.688 63.9375C149.609 63.9427 149.531 63.9844 149.453 64.0052C149.531 63.9896 149.609 63.9688 149.693 63.9688C149.844 63.9635 150 63.9688 150.151 63.9792C149.135 64.6458 148.078 64.1719 147.063 63.8906C145.99 63.599 145.005 62.8229 143.797 63.3854C143.609 63.474 143.266 63.3542 143.01 63.276C140.531 62.4635 138.021 62.026 135.391 62.1771C134.115 62.2552 132.776 61.7448 131.453 61.5677C128.344 61.151 125.224 60.6615 122.109 60.6302C120.193 60.6042 118.453 60.1823 116.667 59.7292C116.385 59.6563 116.161 59.3802 115.557 58.9531C118.948 58.5521 121.896 59.4375 125.214 59.2344C123.161 58.7083 121.453 58.3021 119.734 57.9063C119.651 57.8854 119.542 57.8177 119.484 57.8385C117.453 58.6875 115.417 57.599 113.391 57.7813C113.068 57.8073 112.75 57.8698 112.396 57.9219C112.714 58.8177 113.479 58.5104 114 58.7135C114.214 58.7969 114.49 58.9948 114.521 59.1719C114.557 59.3594 114.396 59.6771 114.214 59.7656C112.51 60.6146 110.682 60.7135 108.844 60.2656C106.661 59.7448 106.542 59.6875 104.135 60.3698C103.911 60.4323 103.495 60.4271 103.401 60.3073C102.844 59.5781 102.021 59.6146 101.229 59.6458C98.573 59.75 95.9219 59.3333 93.25 59.7396C91.8073 59.9583 90.2552 59.5729 88.7448 59.5365C86.8802 59.4896 85.0104 59.5208 83.1459 59.5521C82.5261 59.5625 81.8438 59.75 81.2917 59.5885C78.5729 58.8021 75.8073 59.4115 73.0625 59.4688C72.349 59.4844 71.6354 59.5208 70.9896 59.5521C70.1979 58.8698 71.1302 58.3594 71.125 57.8698C70.2344 57.4375 69.3854 57.0313 68.4688 56.6042C69.7604 55.7969 69.7657 55.7917 70.7761 56.1406C71.8282 56.5 72.8125 56.599 73.7761 55.849C74.1771 55.5365 74.724 55.375 75.2032 55.1458C75.2552 55.4375 75.1927 55.8333 75.3802 55.9948C76.0209 56.5313 76.7448 56.9792 77.5313 57.5365C78.1407 57.3698 78.8959 57.1719 79.6459 56.9688C79.6667 56.9635 79.6511 56.8438 79.6511 56.776C79.2657 56.6875 78.8802 56.6042 78.5052 56.5208C78.6771 55.9167 78.8073 55.4583 78.9219 55.0521C76.8646 53.3698 76.8438 53.375 75.1563 55.2135C74.8386 54.5104 74.2761 54.0313 73.375 53.7031C72.9532 53.9063 72.4896 54.1458 72.0052 54.3542C71.0365 54.7708 70.1354 55.3594 68.9479 55.0729C68.6615 55.0052 68.2709 55.1719 67.9479 55.2865C66.375 55.8385 66.099 55.7813 65.375 54.625C65.2032 54.3542 65.0834 54.0573 64.9219 53.7396C64.4375 53.7292 63.9844 53.7135 63.4532 53.7031C62.9323 54.2344 62.4063 54.7813 61.8854 55.3229C62.0782 55.7031 62.224 55.9896 62.3698 56.276C62.2344 56.3594 62.0729 56.5365 61.9688 56.5156C61.2188 56.349 60.4896 56.026 59.7344 56.0052C59.0313 55.9844 58.3229 56.3177 57.6042 56.4375C57.2709 56.4948 56.9063 56.4115 56.6146 56.3906C56.4584 55.651 56.3229 55.0104 56.1094 54.0365C56.1615 53.6979 57.6771 54.2396 57.3386 53.1042C56.3802 53.2865 55.4167 53.4844 54.5 53.6719C54.4323 53.9427 54.3229 54.1094 54.3594 54.2448C54.5157 54.8021 54.1823 55.4688 54.7448 55.9375C54.2292 56.5156 53.724 57.0938 53.1771 57.7292C52.5417 57.6094 51.9479 57.474 51.3438 57.3958C50.4636 57.2865 49.5677 57.1719 49.0313 58.1354C48.974 58.2448 48.5365 58.1979 48.2084 58.2292C48.3646 57.8021 48.5 57.4323 48.6354 57.0781C48.375 56.8385 48.1354 56.6198 47.8854 56.3854C48.0209 56.2604 48.1302 56.0833 48.2396 56.0729C49.1563 56.0052 50.0625 55.9792 51.0782 55.9427C51.5052 55.5156 51.9896 55.0313 52.4427 54.5781C52.3386 54.3594 52.3021 54.2031 52.1979 54.0885C51.5104 53.3125 50.5834 53.4479 49.6875 53.7865C48.7344 54.1458 47.875 54.4479 46.8021 54.1667C46.1615 53.9948 45.3542 54.2344 44.6198 54.3073C43.9896 54.3698 43.349 54.5625 42.7396 54.5156C41.3646 54.401 40.1979 54.9115 39.0521 55.5C38.9323 55.5625 38.9063 55.7865 38.7709 56.0833C39.7761 56.3021 40.8282 56.5208 41.2657 57.3906C43.1198 56.974 44.8125 56.599 46.6615 56.7708C46.1354 57.4531 46.5313 58.2656 45.7032 58.7292C45.0782 59.0833 44.5104 59.5156 43.7552 60.026C42.8542 59.6823 41.6823 59.9635 40.6875 59.2604C40.0104 58.776 38.1563 59.2448 37.7917 59.9948C37.2917 61.0156 36.4479 61.276 35.4427 61.4635C34.1042 61.7135 32.7761 61.9635 31.4479 62.224C30.9323 61.4583 31.2396 60.3125 29.8438 59.9896C29.4792 60.1354 28.974 60.3385 28.4792 60.5521C28.0625 60.7292 27.6354 61.0833 27.25 61.0729C25.7761 61.026 24.5938 61.5313 23.4323 62.3906C22.8177 62.8438 21.9167 63.0313 21.1302 63.2552C19.25 63.7969 19.2396 63.776 18.0417 65.2031C17.125 64.1979 16.0625 63.3281 16.0625 61.9115C15.1511 61.5 13.75 61.8177 13.9375 60.3958C12.1875 60.9323 10.7344 60.599 9.25524 60.4688C9.16669 60.4635 9.13544 60.2031 9.05211 60.0052C9.6094 59.3333 10.4167 59.6719 11.0938 59.5625C11.6823 59.4635 12.2969 59.6302 12.9375 59.6875C12.9896 58.8698 12.2865 58.224 13.1979 57.526C12.7188 56.9219 12.2396 56.3177 11.7396 55.6979C9.95836 55.9167 8.22398 55.8594 6.62503 57.0208C5.83336 56.2813 4.90628 55.7917 5.32294 54.5677C5.37503 54.4167 5.09898 54.1458 4.89586 54.0156C3.52086 53.1146 3.26565 51.8594 3.87503 50.1927C4.1719 50.1406 4.61461 50.0625 5.05732 49.9896C5.01565 48.8958 4.59378 48.0729 3.80732 47.5781C3.6719 47.4896 3.40628 47.4219 3.41148 47.3333C3.46878 46.3438 2.80211 45.9427 1.80732 45.7083C1.32815 45.5938 1.11982 45.1979 1.3594 44.724C1.64586 44.1406 2.34898 43.8281 2.83336 44.0208C3.7344 44.375 4.43753 44.2396 5.19273 43.625C5.32815 42.0833 3.81253 42.2552 2.66148 42.2031C3.22919 41.1458 3.73961 40.2083 4.3594 39.0833C5.1719 38.7708 6.20315 38.3802 7.19794 38.0104C7.22919 37.4531 6.72398 37.3594 6.4219 37.4948C5.34898 37.9896 3.96357 37.8698 3.14065 38.9271C3.01044 39.0938 2.2969 39.1823 2.06253 39.0625C1.81773 38.9427 1.69794 38.5156 1.76044 38.2292C1.88544 37.6719 2.18232 37.1146 2.40628 36.5729C1.9844 36.4427 1.43232 36.4167 1.36461 36.224C1.19794 35.7708 1.06773 35.4115 0.536484 35.1094C0.0260669 34.8281 0.437526 33.9531 1.1094 33.6667C1.47919 33.5156 2.22919 33.4063 2.2344 33.349C2.23961 32.375 3.56253 32.2604 4.01044 31.625C4.12503 31.4583 3.94273 31.1875 3.88024 30.849C5.61982 30.1458 7.43232 29.526 8.45315 27.974C7.97398 27.7656 7.56773 27.5938 7.15107 27.4219C7.09898 26.776 7.63024 26.5 8.31253 26.3958C9.68232 26.1875 10.5834 26.4896 10.1198 28.1042C11 27.6302 11.3282 27.4427 11.6719 27.276C12.0417 27.1042 12.4219 26.9531 12.9636 26.724C12.4011 28.2031 10.8021 28.6302 9.38544 29.5156C11.1823 29.7396 12.2552 28.4948 13.8698 28.2344C13.7761 28.6563 13.7084 28.9375 13.6354 29.2708C13.9532 29.3281 14.3854 29.4063 14.8542 29.4844C14.849 29.8021 14.8438 30.1146 14.8386 30.4271C15.7084 30.6615 16.5677 30.6302 17.4948 30.2396C18.5365 29.8021 19.6042 29.4115 20.6823 29.0573C21.0521 28.9375 21.6511 28.8021 21.8438 28.9427C22.9584 29.7344 24.099 29.3438 25.2396 28.7552C26.7552 27.9635 28.3907 28.2448 29.9584 27.9531C30.1459 27.9167 30.3802 28.224 30.724 28.4688C30.2709 28.8958 29.849 29.3073 29.4167 29.7188C29.6563 29.8594 29.8177 30.026 29.9323 30C30.5313 29.8594 31.1146 29.6719 31.7084 29.4948C32.6459 29.2188 33.0052 28.6563 32.849 27.9167C35.0729 27.151 37.1459 26.2917 39.5729 26.9792C37.7032 27.4271 36.0313 27.8438 34.3229 28.2917C33.8594 29.0469 35.724 28.8385 35.1302 29.75C34.8229 30.224 34.8907 30.8281 34.7969 31.3177C35.5886 31.6615 36.0677 31.3385 36.5209 30.9479C36.5938 30.8854 36.724 30.7969 36.7084 30.7552C36.3854 29.7292 38.1459 29.2292 37.8959 28.1823C38.8698 27.8438 39.8282 27.5052 41.1354 27.0677C41.4219 26.6146 41.849 25.9531 42.4427 25.0313C42.7344 25.2813 42.9532 25.4323 43.1198 25.6094C44.0834 26.6458 45.3438 26.7396 46.875 26.2135C49.4011 25.3594 52 24.8958 54.7084 24.8073C56.4167 24.7552 58.1511 24.2917 59.8698 23.9948C60.1146 23.9531 60.3125 23.6875 60.5261 23.5156C60.8073 23.2917 61.0417 23.0052 61.3646 22.8385C61.7084 22.6719 62.1407 22.6198 62.6823 22.4792C62.7032 22.7448 62.7448 22.9323 62.724 23.125C62.7032 23.349 62.6302 23.5729 62.5573 23.9219C65.0052 23.6979 67.349 23.5521 69.6875 23.3542C70.5417 23.2813 71.1719 22.4427 72.3021 23.0521C72.9427 23.401 74.0782 23.1927 74.9896 23.2552C76.2032 23.3385 76.4271 23.2031 77.0261 21.9323C75.4688 20.9948 73.6407 21.6094 71.9427 21.5833C70.3125 21.5625 68.6719 21.6823 67.0365 21.7656C65.3125 21.8542 63.5834 21.9688 61.849 22.099C61.5625 21.7188 61.9271 21.4375 62.3021 21.4115C64.4636 21.25 66.6354 21.2604 68.7917 21.0885C71.1459 20.901 73.5573 20.8646 75.7396 19.8802C76.1563 20.4688 76.9636 20.5156 77.6302 20.4479C80.0052 20.2135 82.349 20.4688 84.6875 20.4792C86.5417 20.4844 88.4427 20.8542 90.2188 20.5521C92.099 20.2344 93.8594 20.7188 95.6927 20.6198C97.4271 20.5208 99.198 20.6979 100.927 20.8906C105.745 21.4167 110.563 21.6771 115.391 22.0104C116.271 22.0677 117.161 21.9896 118.781 21.9792C117.818 21.5677 117.474 21.4635 117.193 21.2969C116.859 21.099 116.604 20.8177 116.266 20.625C115.177 20 114.047 19.7552 112.792 20.2813C112.198 20.5313 111.5 20.6302 110.688 20.8438C110.682 20.224 110.677 19.776 110.672 19.349C109.813 18.9792 109.052 18.8385 108.323 19.4063C108.464 19.776 108.609 20.151 108.786 20.599C107.474 20.7969 106.391 20.3125 105.339 20.0885C105.109 19.625 105.391 19.1146 104.641 19.026C104.359 19.1406 104.094 19.2552 103.823 19.3594C103.646 19.0729 103.948 18.5313 103.177 18.5677C103.021 18.5729 102.885 18.8542 102.667 19.0938C103.172 19.1771 103.536 19.2344 103.906 19.2969C103.417 19.7865 102.74 20.099 102.068 19.6563C100.125 18.3802 98.3229 18.526 96.5886 19.9167C95.2917 19.8281 93.9792 19.7552 92.7865 19.6875C91.099 17.7135 91.0886 17.7135 88.9011 18.0938C89.0469 18.5938 89.1875 19.0885 89.3646 19.7188C86.875 19.599 84.6459 19.526 82.4115 19.4479C82.2813 19.4479 82.1615 19.2292 82.0313 19.1094C82.1719 18.6771 83 18.4635 82.6979 17.8958C80.7813 17.6354 80.7761 17.6406 79.8854 18.7344C78.4167 19.1458 77.0469 19.5365 75.6875 19.9427ZM49.8594 35.4115C49.7604 35.5521 49.6094 35.6875 49.5729 35.8333C49.5365 35.9688 49.625 36.1146 49.6563 36.2552C49.8229 36.2188 50.0365 36.224 50.1407 36.1354C50.2344 36.0573 50.2813 35.8542 50.224 35.7604C50.1511 35.6302 49.9636 35.5469 49.7969 35.474C49.099 35.5677 48.8542 35.6563 48.5834 35.9271C48.7709 35.901 48.9792 35.9167 49.1354 35.8438C49.3959 35.7292 49.6198 35.5573 49.8594 35.4115ZM112.25 52.3073C111.891 52.1771 111.531 52.0469 111.172 51.9167C111.146 51.9896 111.12 52.0573 111.094 52.125C111.479 52.1823 111.865 52.25 112.25 52.3125C113.151 52.4479 114.052 52.6719 114.953 52.7031C115.693 52.7292 116.589 53.0625 117.182 52.3646C117.115 52.224 117.099 52.1302 117.042 52.0885C115.526 51.1615 113.948 51.6042 112.391 51.875C112.318 51.8906 112.302 52.1667 112.25 52.3073ZM147.052 60.9271C146.974 60.776 146.938 60.5417 146.818 60.4948C145.661 60.0469 144.49 59.3646 143.313 59.3073C141.901 59.2448 140.656 58.8333 139.359 58.4896C138.729 58.3177 138.172 58.2083 137.516 58.3698C135.578 58.849 133.693 58.375 131.786 57.7448C132.766 57.7448 133.745 57.7552 134.995 57.7708C133.771 57.1771 132.875 56.7708 131.708 56.7031C129.089 56.5573 126.479 56.1563 123.865 55.9375C123.792 55.9323 123.698 56.1302 123.49 56.401C124.214 56.4583 124.807 56.4792 125.391 56.5573C125.724 56.6042 126.047 56.724 126.375 56.8125C125.328 56.9271 124.333 56.8854 123.354 56.7604C122.948 56.7135 122.453 56.5677 122.203 56.3073C120.958 55.0521 119.505 55.099 118.047 55.724C117.344 56.026 116.693 56.2135 116.005 55.8594C114.958 55.3177 113.875 54.9635 112.646 54.9583C112.385 54.9583 111.99 54.6406 111.87 54.3906C111.568 53.7708 111.021 53.7813 110.516 53.9271C109.865 54.1198 109.271 54.4479 108.667 54.7188C108.495 54.6354 108.333 54.5625 108.182 54.474C106.88 53.7656 106.87 53.7656 105.859 54.4792C105.385 54.8177 104.932 55.1667 104.432 55.5417C103.599 54.7344 102.573 54.3542 101.297 54.4271C100.307 54.4792 99.3021 54.3958 98.3021 54.3438C97.7657 54.3125 97.073 54.3542 96.724 54.0885C95.5625 53.2031 94.3542 53.4271 93.1302 53.8073C92.5052 53.9948 91.9011 54.1771 91.2969 53.849C89.8907 53.0938 88.5104 53.4115 87.1146 53.8958C86.4584 54.125 85.7344 54.1979 85.0521 54.3594C84.3854 54.5156 83.9479 54.8385 84.0417 55.5938C86.1719 55.5833 88.2344 55.7031 90.2865 55.599C91.2761 55.5469 92.2448 55.5417 93.2084 55.6927C93.4636 55.7292 93.6771 55.9948 94.2032 56.3542C92.8438 56.5208 91.8802 56.651 90.8125 56.8021C90.9584 57.0729 91.0625 57.2604 91.1615 57.4531C92.4115 56.849 93.724 57.1094 95.0313 57.2031C95.323 57.224 95.9115 56.9219 95.9115 56.7656C95.9063 56.1094 96.0834 55.75 96.9115 55.7865C101.396 55.9792 105.875 56.2813 110.339 56.7031C110.781 56.7448 111.234 56.7656 111.682 56.7813C116.172 56.9375 120.667 57.2292 125.161 57.6042C126.443 57.7135 127.542 58.0365 128.25 59.1094C128.698 58.4531 129.208 58.0208 130.219 58.2448C132.604 58.7708 135.109 58.6563 137.427 59.5573C140.708 59.375 143.828 60.6198 147.057 60.9375C148.979 61.3542 148.979 61.3542 150.307 61.0208C149.719 60.8854 149.417 60.7604 149.13 60.7656C148.432 60.7813 147.745 60.8646 147.052 60.9271ZM25.0782 37.3333C25.8229 37.4167 26.5 37.6198 27.1719 37.5521C27.9375 37.4688 28.6979 37.1094 29.474 36.9427C30.0573 36.8177 30.6667 36.8281 31.2604 36.75C31.849 36.6667 32.5834 36.6979 33.0052 36.4219C35.2084 34.9688 37.7604 35.1875 40.1719 34.849C40.8646 34.7552 41.5834 34.8281 42.2604 34.6979C45.7084 34.026 49.1563 33.4115 52.6042 32.7969C53.6719 32.6094 54.724 32.2708 55.7292 31.8906C56.5209 31.5885 57.1563 31.4635 57.974 31.7813C59.1354 32.2292 60.2292 32 61.2552 31.0469C60.6511 30.7292 60.1563 30.2344 59.6979 30.2708C57.7136 30.4531 56.8229 29.2865 55.6042 28.4896C55.4688 28.401 55.2344 28.4063 54.875 28.3385C54.4844 28.5781 53.8802 28.8073 53.5469 29.1823C53.1563 29.6198 53.0157 30.1927 52.8386 30.5573C50.9427 30.9219 49.1719 31.0625 47.6459 31.6719C45.9636 32.3438 44.0938 32.0469 42.5469 33.0781C41.8438 32.1615 40.9271 32.151 39.8854 32.5365C37.8177 33.2969 35.6407 33.6563 33.4792 33.9375C32.1354 34.1094 30.9167 34.4688 29.7136 34.9688C28.8802 35.3125 28.0729 35.7083 27.1667 36.1302C25.4636 35.651 23.6615 36.0156 22.0521 36.8854C21.1459 37.375 20.2344 37.6979 19.2865 38.0417C18.8021 38.2135 18.4375 38.6719 17.7396 39.2292C19.224 39.2813 20.2292 38.599 21.2292 38.6094C22.724 38.6146 23.9323 38.1094 25.0782 37.3333ZM88.7709 49.9583C88.5782 49.8229 88.224 49.7031 88.1927 49.5365C88.0313 48.6406 87.3125 48.375 86.4323 48.2604C85.8802 48.1979 85.1719 47.9271 84.7969 48.125C83.6615 48.724 82.8802 47.8021 81.9948 47.776C81.4844 48.0208 81.0938 48.2604 80.6615 48.4063C79.5521 48.7813 79.4115 49.6354 79.2344 50.4688C79.0886 51.1563 79.4896 51.5938 80.2604 51.5156C82.4636 51.3125 84.6615 51.1146 86.8542 50.8854C87.4115 50.8281 87.8802 50.8021 88.4427 50.9531C90.6459 51.5573 91.125 51.3125 92.0938 49.3177C91.0313 48.4844 91.0157 48.474 88.7709 49.9583ZM67.1146 49.8021C67.5938 50.026 68.0521 50.2448 68.4896 50.4583C68.0782 51.0104 67.8542 51.3177 67.5938 51.6719C68.6146 52.0677 69.2396 51.4635 69.9948 51.1719C69.9479 50.3125 69.9063 49.4635 69.849 48.4323C67.8542 48.6667 65.9479 48.974 64.0573 49.375C63.6511 49.4583 63.25 49.5625 62.6823 49.7083C64.1927 50.6563 64.1979 50.6146 64.9271 50.6875C65.8386 50.776 66.4115 50.2448 67.1146 49.8021ZM49.6875 47.125C51.2084 46.3854 50.4479 45.2708 50.974 44.6146C51.625 43.8125 52.0938 42.9896 52.8386 41.9688C51.4584 41.9479 50.4896 42.1458 49.4844 42.6198C49.4271 43.3646 49.375 44.0625 49.3282 44.6979C48.849 44.9688 48.4688 45.1927 48.0261 45.4479C48.6302 46.0521 49.1302 46.5521 49.6875 47.125ZM88.1927 29.2083C87.8594 29.2604 87.5938 29.3333 87.3229 29.3438C85.9532 29.3802 84.5834 29.3854 83.2136 29.474C82.7865 29.5 82.5677 29.7969 82.7761 30.224C83.6927 30.5052 84.625 30.2031 85.5677 30.1823C86.5209 30.1615 87.4636 30.5365 88.4219 30.5781C89.6511 30.6354 90.349 29.849 90.0886 28.8229C89.9896 28.4479 89.7761 28.0938 89.5729 27.625C88.9011 27.7552 88.3646 27.8646 87.7813 27.9844C87.9375 28.4531 88.0573 28.7969 88.1927 29.2083ZM98.2344 50.8177C99.5209 49.9948 100.911 50.0156 102.349 50.5365C102.76 50.6927 103.219 50.7969 103.661 50.8125C104.167 50.8281 104.599 50.5365 104.568 50.0938C104.547 49.7396 104.323 49.3229 104.031 49.0833C103.807 48.901 103.318 48.8698 102.979 48.9115C101.74 49.0781 100.521 49.7396 99.3073 48.7917C99.198 48.7083 98.7761 48.849 98.5573 48.9688C98.1719 49.1823 97.8177 49.4427 97.4896 49.724C97.3855 49.8125 97.3907 50 97.3334 50.2031C97.6042 50.3854 97.8855 50.5781 98.2344 50.8177ZM127.51 21.9063C125.594 22.7396 123.411 21.3906 121.214 22.0052C121.776 22.7917 122.594 22.8958 123.375 22.9479C125.089 23.0521 126.792 23.724 128.51 23.2083C128.661 23.1615 128.781 23.0573 128.917 22.9844C128.458 22.6302 128.01 22.2917 127.51 21.9063ZM20.6094 32.3021C21.375 32.1094 22.2761 32.0781 22.875 31.7031C23.7761 31.151 24.6771 31.4271 25.5417 31.1667C26.3073 30.9323 27.0782 30.7135 28.1823 30.401C27.6719 30.1146 27.4167 29.8438 27.1042 29.8281C26.1823 29.776 25.3021 29.9688 24.5052 30.5313C24.125 30.7969 23.5365 31.1302 23.1667 31.0781C21.9636 30.9219 21.3594 31.6823 20.6094 32.3021ZM61.0469 49.4219C60.1979 49.5365 59.3854 49.599 58.6094 49.7813C58 49.9271 57.6823 50.5729 57.8021 51.1563C57.8959 51.5833 58.4584 51.875 59.0886 51.7604C59.625 51.6615 60.1771 51.5469 60.6615 51.3385C61.4636 50.9844 61.6354 50.4115 61.0469 49.4219ZM77.5052 50.5417C78.0104 49.8802 78.5417 49.1927 79.1719 48.3854C77.5261 47.7969 76.3177 48.5938 74.974 48.9583C75.6459 49.8229 75.9636 50.8906 77.5052 50.5417ZM20.349 49.1354C19.4427 48.3438 18.375 48.2135 17.1511 48.5C16.4271 48.6719 16.1042 49.4375 16.5625 49.8854C17.0365 50.3542 17.6511 50.4688 18.3282 50.1563C19 49.8438 19.6459 49.4896 20.349 49.1354ZM109.354 51.625C108.661 51.2917 107.917 50.9375 107.203 50.5938C106.63 50.9323 106.125 51.2292 105.448 51.625C106.432 52.1771 107.266 52.5781 108.281 52.6146C108.979 52.6406 109.245 52.2917 109.354 51.625ZM79.5625 54.6979C80.4271 55.8229 81.4792 55.8854 82.625 55.4844C82.7969 55.4219 82.9584 54.8594 82.8438 54.7083C82.6094 54.4063 82.1875 54.2188 81.8177 54.0156C80.849 53.4792 80.8282 53.4896 79.5625 54.6979ZM31.2552 39.5885C31.1563 39.3438 31.1563 39.125 31.0417 39.0781C29.8177 38.6302 28.6094 38.9635 27.5104 39.599C27.2917 39.7292 27.4011 40.276 27.3438 40.7135C28.8907 40.6302 30.1042 40.2188 31.2552 39.5885ZM34.4011 56.6927C33.6354 56.1823 32.9271 56.474 32.3646 56.8646C32.0782 57.0625 31.8646 57.6198 31.9584 57.9115C32.0573 58.2188 32.5157 58.5052 32.8959 58.6094C33.3698 58.7448 33.724 58.4063 33.8907 57.9896C34.0729 57.5521 34.2344 57.1146 34.4011 56.6927ZM85.5417 21.75C84.7917 21.3698 83.9896 21.4688 83.1979 21.6458C83.0677 21.6771 82.9948 21.875 82.8177 22.0833C83.2084 22.4635 83.6198 22.8698 83.974 23.224C85.1979 23.0521 85.8802 22.7083 85.5417 21.75ZM84.2136 56.6458C85.0521 57.8854 86.0157 57.875 87.0573 57.4531C87.4896 57.276 87.6719 56.9271 87.2084 56.401C86.3698 56.4635 85.4375 56.5365 84.2136 56.6458ZM20.8854 44.9896C20.0365 43.9844 19.1042 43.6563 17.8386 44.2552C17.4011 44.4635 17 44.7865 17.5052 45.3385C18.5313 45.2292 19.6302 45.1146 20.8854 44.9896ZM46.8542 46.0417C45.75 45.625 45.1407 46.0208 44.5886 46.5208C44.3125 46.7708 44.5052 47.4115 44.8698 47.5677C45.4532 47.8073 46.2032 47.5938 46.5209 47.0417C46.6823 46.7552 46.7292 46.4271 46.8542 46.0417ZM11.3073 54.1406C10.0782 53.8021 8.82294 53.6875 7.5469 54.6302C8.8594 55.4167 10.0782 54.526 11.3073 54.1406ZM25.2136 47.3854C23.5261 47.1563 23.5209 47.151 21.7709 48.0208C23.125 49.0052 24.1302 48.0469 25.2136 47.3854ZM26.7188 54.2552C27.5521 54.7552 28.1927 54.4896 28.8959 53.9323C28.5157 53.4063 28.224 53.0052 27.8802 52.526C27.4271 53.1927 27.0729 53.7188 26.7188 54.2552ZM55.4479 37.9167C55.3386 37.5208 55.2396 37.1667 55.1354 36.7969C53.3438 37.5573 53.349 37.5573 52.5625 38.5833C53.3282 38.4271 53.9844 38.3073 54.6407 38.1667C54.9115 38.1094 55.1719 38.0052 55.4479 37.9167ZM54.2657 46.6771C55.0469 46.625 55.3125 46.2656 55.3021 45.599C55.2917 45.1719 55.1771 44.7865 54.5625 44.8542C53.8594 44.9271 53.2969 45.5313 53.5157 46.0417C53.6459 46.3385 54.0834 46.5313 54.2657 46.6771ZM136.104 25.599C135.818 26.2552 136.307 26.6563 136.948 26.9688C137.375 27.1771 137.984 27.3854 138.219 26.9427C138.37 26.6615 138.224 26.1458 137.974 25.8698C137.49 25.3385 136.781 25.3021 136.104 25.599ZM125.99 27.25C127.271 27.4792 127.948 27.651 128.635 27.724C128.938 27.7552 129.26 27.5781 130.219 27.3385C128.719 26.9323 127.885 26.6719 127.026 26.5313C126.818 26.4948 126.536 26.8542 125.99 27.25ZM28.9011 57.9479C29.0573 58.2708 29.1354 58.4844 29.2552 58.6823C29.4636 59.026 29.7292 59.3906 30.2604 59.0938C30.7188 58.8385 30.6719 58.4271 30.5261 58.0417C30.2292 57.276 29.6771 57.4583 28.9011 57.9479ZM84.8282 40.776C86.2396 40.9531 87.1354 40.9896 88.0729 40.5208C86.8438 39.9323 86.8334 39.9271 84.8282 40.776ZM74.5677 43.7292C72.6511 43 72.1979 43.0781 71.4896 44.1667C72.5209 44.474 73.4688 44.4479 74.5677 43.7292ZM20.5573 54.6927C19.5209 54.5104 18.9271 54.6667 18.4427 55.1667C18.0677 55.5573 18.1563 56.2135 18.6354 56.3802C19.1094 56.5521 19.474 56.4115 19.724 55.9375C19.9063 55.5677 20.1875 55.2292 20.5573 54.6927ZM38.4375 51.7344C37.4792 51.5 36.9844 51.2552 36.5052 51.3073C36.1615 51.3438 35.75 51.7292 35.5417 52.0365C35.3542 52.3177 35.9896 52.6146 36.5313 52.4531C37.0209 52.3073 37.4896 52.0938 38.4375 51.7344ZM8.92711 52.6823C10.0469 52.75 10.7344 52.8333 11.4427 52.8281C11.6094 52.8229 11.9167 52.5208 11.9688 52.3333C12.0104 52.1771 11.8229 51.875 11.6511 51.8385C10.8386 51.6771 10.0209 51.7396 8.92711 52.6823ZM64.3594 43.3646C63.6094 43.7031 63.099 43.9323 62.3125 44.2917C62.9688 44.6667 63.4063 45.1354 63.7604 45.0833C64.6302 44.9635 64.4375 44.2969 64.3594 43.3646ZM98.7605 56.9635C98.448 56.9271 98.1042 56.8229 97.7761 56.8542C97.2188 56.9115 97.099 57.2917 97.1719 57.7292C97.2344 58.1406 97.6615 58.3333 98.1615 58.1979C98.8177 58.0156 98.8542 57.5729 98.7605 56.9635ZM43.5417 39.7708C45.8125 39.4375 45.8125 39.4479 46.1146 38.1875C44.8959 38.0313 44.4063 38.7969 43.5417 39.7708ZM76.9584 29.7969C77.6667 30.4063 78.4063 30.3646 79.1615 30.0469C79.3021 29.9844 79.2969 29.6927 79.3907 29.4063C78.7344 29.4375 78.2396 29.4427 77.7604 29.5C77.5104 29.5365 77.2761 29.6771 76.9584 29.7969ZM68.2136 30.2604C69.9219 30.8021 69.9167 30.8021 70.5365 29.9531C69.7084 30.0573 68.9584 30.1563 68.2136 30.2604ZM134.016 34.6771C134.729 34.75 135.443 34.8281 136.349 34.9323C135.203 34.2865 135.203 34.2865 134.016 34.6771ZM54.4636 50.8698C54.4792 51.026 54.4948 51.1823 54.5104 51.3385C54.9271 51.3698 55.3438 51.4375 55.7552 51.4375C56.4011 51.4323 56.849 51.0677 56.5782 50.8073C56.375 50.6146 55.9948 50.4531 55.7084 50.474C55.2865 50.5104 54.8802 50.7292 54.4636 50.8698ZM144.021 58.0625C144.901 58.25 145.229 58.3542 145.563 58.3958C145.922 58.4375 146.344 58.4219 146.193 57.9583C146.141 57.7917 145.786 57.5521 145.604 57.5677C145.229 57.599 144.875 57.776 144.021 58.0625ZM5.69794 32.6875C6.51044 32.6198 6.96878 32.1927 7.28128 31.6302C7.33857 31.5208 7.28128 31.3125 7.1719 31.25C7.0469 31.1823 6.78128 31.1719 6.63024 31.2396C5.90628 31.5573 5.64586 32.0521 5.69794 32.6875ZM128.281 33.5677C128.276 33.5938 128.276 33.6198 128.271 33.6406C128.813 33.724 129.359 33.8021 129.901 33.8854C129.911 33.8281 129.917 33.7708 129.922 33.7135C129.375 33.6667 128.828 33.6198 128.281 33.5677ZM134.406 60.4375C134.422 60.5521 134.438 60.6615 134.453 60.7708C135.094 60.7969 135.729 60.8229 136.589 60.8646C135.719 60.6875 135.063 60.5625 134.406 60.4375ZM27.2396 43.6302C27.1979 43.5573 27.1563 43.4219 27.1198 43.4271C26.6771 43.4688 26.2344 43.5313 25.7917 43.6042C25.7813 43.6042 25.7552 43.7396 25.7813 43.7917C25.9323 44.0729 26.6042 44.1042 27.0782 43.8438C27.1511 43.7969 27.1823 43.6979 27.2396 43.6302ZM175.573 43.2552C175.563 43.3646 175.552 43.474 175.542 43.5833C175.995 43.7031 176.438 43.8385 176.896 43.9427C177.042 43.9792 177.208 43.9323 177.365 43.9219C177.214 43.8229 177.073 43.6823 176.906 43.625C176.469 43.4844 176.016 43.375 175.573 43.2552ZM27.0469 58.4479C26.0521 58.5208 25.5573 58.5573 24.625 58.6302C25.2084 59.1354 25.4896 59.3802 25.8386 59.6875C26.1667 59.349 26.4011 59.1042 27.0469 58.4479ZM84.9844 43.3438C84.3073 42.9896 83.8021 42.7865 83.1771 43.2917C83.6615 43.8021 84.1979 43.75 84.9844 43.3438ZM84.3386 52.5625C83.0886 52.3906 83.0886 52.3906 82.3802 52.9531C83.0469 52.8177 83.5365 52.7188 84.3386 52.5625ZM132.042 60.4375C131.37 59.9844 131.115 59.7708 130.823 59.6354C130.724 59.5833 130.521 59.724 130.365 59.776C130.427 59.9115 130.464 60.125 130.563 60.1563C130.875 60.2552 131.219 60.2865 132.042 60.4375ZM30.7917 45.6875C30.8021 45.7292 30.8125 45.7656 30.8282 45.8021C31.2917 45.6667 31.7604 45.5313 32.2292 45.3958C32.2188 45.3594 32.2084 45.3229 32.1979 45.2865C31.7292 45.4167 31.2604 45.5521 30.7917 45.6875ZM103.604 57.3333C103.182 57.224 102.917 57.0781 102.698 57.1198C102.396 57.1771 102.115 57.3542 101.865 57.5313C101.797 57.5729 101.859 57.9063 101.901 57.9167C102.214 57.9688 102.568 58.0625 102.844 57.974C103.109 57.8906 103.292 57.6094 103.604 57.3333ZM59.5834 44.0156C59.0052 43.6458 58.5521 43.8646 58.2084 44.3125C58.1615 44.375 58.3229 44.6302 58.4479 44.6771C59.1771 44.9323 59.4844 44.6042 59.5834 44.0156ZM49.2292 52.3542C49.2344 52.474 49.2448 52.599 49.2552 52.7188C49.7865 52.5625 50.3229 52.4167 50.8594 52.2656C50.8386 52.1771 50.8125 52.0938 50.7917 52.0052C50.2709 52.1198 49.75 52.2344 49.2292 52.3542ZM44.1511 49.1771C44.2604 49.3229 44.2917 49.4115 44.3646 49.4427C44.75 49.6146 45.1563 49.7917 45.5104 49.3646C45.5886 49.2708 45.5313 48.9688 45.4896 48.9635C45.1615 48.9271 44.8177 48.9323 44.4792 48.9427C44.4115 48.9427 44.3438 49.0365 44.1511 49.1771ZM36.2344 53.7604C36.3438 53.7969 36.4479 53.8281 36.5521 53.8646C36.7396 53.5573 36.9271 53.2552 37.1146 52.9479C36.8542 52.9688 36.4584 52.9063 36.3698 53.0208C36.224 53.2083 36.2709 53.5104 36.2344 53.7604ZM92.3698 34.0625C92.3594 33.9792 92.349 33.901 92.3438 33.8177C91.9063 33.8698 91.474 33.9219 91.0417 33.974C91.0417 34.0104 91.0469 34.0469 91.0469 34.0833C91.4896 34.0781 91.9271 34.0677 92.3698 34.0625ZM130.016 31.4479C130.849 31.526 131.292 31.5677 131.776 31.6146C131.438 31.0156 131 30.8854 130.016 31.4479ZM144.313 29.401C145.365 30.1875 146.026 30.2552 147.26 29.8333C146.099 29.6563 145.458 29.5625 144.313 29.401ZM155.349 54.9167C155.75 55.1771 156.167 55.6406 156.771 55.0313C156.146 54.9792 155.75 54.9479 155.349 54.9167ZM59.0521 28.651C59.2657 28.7135 59.4844 28.7813 59.7032 28.8438C59.7917 28.6719 59.8802 28.4948 59.974 28.3177C59.7292 28.2656 59.4896 28.2083 59.2448 28.1927C59.2136 28.1875 59.1407 28.4375 59.0521 28.651ZM54.5521 47.9271C54.7032 47.7083 54.8229 47.526 54.9479 47.3438C54.75 47.2656 54.5261 47.0938 54.349 47.1302C54.0313 47.1927 53.599 47.3385 53.8334 47.724C53.9115 47.8542 54.2657 47.8542 54.5521 47.9271ZM41.3125 52.7188C41.5417 52.9427 41.6667 53.151 41.7657 53.1354C42.0052 53.099 42.25 52.9844 42.4688 52.8646C42.5 52.8438 42.3959 52.526 42.375 52.5313C42.0469 52.5677 41.7292 52.6406 41.3125 52.7188ZM32.5834 54.9375C32.75 54.9635 32.9167 54.9948 33.0886 55.0208C33.099 54.9323 33.1146 54.8385 33.125 54.7448C32.9584 54.7552 32.7865 54.7656 32.6198 54.7917C32.6042 54.7917 32.5938 54.8854 32.5834 54.9375ZM139.526 61.4167C139.63 61.3698 139.734 61.3229 139.839 61.2708C139.693 61.224 139.547 61.1667 139.396 61.1406C139.333 61.1302 139.26 61.1927 139.198 61.224C139.307 61.2865 139.417 61.349 139.526 61.4167ZM106.292 49.4688C106.271 49.5573 106.25 49.6458 106.229 49.7344C106.479 49.7708 106.729 49.8438 106.969 49.8438C107.13 49.8438 107.281 49.724 107.438 49.6615C107.307 49.5729 107.188 49.4219 107.052 49.4115C106.802 49.3854 106.542 49.4427 106.292 49.4688ZM139.974 32.7656C139.807 32.724 139.641 32.6823 139.469 32.651C139.453 32.651 139.417 32.7604 139.391 32.8125C139.563 32.8542 139.734 32.901 139.906 32.9271C139.922 32.9271 139.953 32.8229 139.974 32.7656ZM116.859 24.0781C116.859 24.151 116.854 24.224 116.849 24.2969C117.245 24.3125 117.635 24.3333 118.031 24.349C118.031 24.276 118.036 24.2031 118.042 24.125C117.646 24.1094 117.255 24.0885 116.859 24.0781ZM120.828 32.5885C120.917 32.6094 121.005 32.6302 121.099 32.651C121.13 32.5208 121.156 32.3906 121.188 32.2604C121.099 32.2448 120.943 32.2083 120.938 32.2188C120.891 32.3385 120.859 32.4688 120.828 32.5885ZM125.552 30.5729C125.615 30.6302 125.682 30.7292 125.745 30.7292C126 30.75 126.26 30.7344 126.516 30.7344C126.484 30.625 126.464 30.4271 126.422 30.4219C126.167 30.3958 125.906 30.4115 125.651 30.4271C125.609 30.4323 125.583 30.526 125.552 30.5729ZM128.146 54.4479C128.078 54.4271 128.01 54.401 127.943 54.3802C127.922 54.4531 127.906 54.5313 127.885 54.6094C127.958 54.6094 128.042 54.625 128.099 54.599C128.135 54.5833 128.13 54.5 128.146 54.4479ZM97.9688 52.8125C98.2605 52.8333 98.4948 52.875 98.724 52.8542C98.7917 52.8542 98.8386 52.6667 98.8959 52.5677C98.6719 52.5365 98.4427 52.4844 98.2188 52.4896C98.1459 52.4948 98.0834 52.6615 97.9688 52.8125ZM91.0209 43.2344C91.1771 43.2969 91.3334 43.4219 91.4896 43.4167C91.6407 43.4167 91.7917 43.2865 91.9375 43.2083C91.7813 43.1406 91.625 43.0208 91.4688 43.026C91.3177 43.026 91.1667 43.1563 91.0209 43.2344ZM90.0886 40.7552C90.1615 40.724 90.2396 40.6979 90.3177 40.6667C90.2761 40.6042 90.25 40.5052 90.1875 40.4792C90.1407 40.4583 90.0365 40.526 89.9584 40.5573C90 40.6198 90.0417 40.6875 90.0886 40.7552ZM32 61.1615C32.1354 61.1927 32.3125 61.2865 32.4532 61.2448C32.5886 61.2083 32.6927 61.0417 32.8125 60.9323C32.6094 60.8802 32.4115 60.7969 32.2136 60.8021C32.1459 60.8073 32.0677 61.0365 32 61.1615ZM32.0573 31.7917C32.1511 31.5938 32.2448 31.3906 32.3438 31.1875C32.1667 31.1823 31.9011 31.1198 31.8229 31.1875C31.6719 31.3281 31.6198 31.5417 31.5261 31.724C31.6771 31.7448 31.8334 31.7604 32.0573 31.7917ZM152.161 54.526C152.208 54.4688 152.255 54.4167 152.302 54.3594C152.24 54.3229 152.156 54.2448 152.12 54.2552C152.052 54.276 152.01 54.349 151.958 54.4063C152.026 54.4479 152.094 54.4844 152.161 54.526ZM73.7448 34.4583C73.7917 34.5104 73.849 34.6198 73.8802 34.6146C74.0573 34.5781 74.224 34.5208 74.4011 34.4688C74.3438 34.4271 74.2813 34.3438 74.2344 34.349C74.0677 34.3646 73.9063 34.4167 73.7448 34.4583ZM73.8959 50.6979C73.849 50.6615 73.8021 50.6042 73.75 50.599C73.6771 50.5833 73.5938 50.6146 73.5157 50.625C73.5782 50.6823 73.625 50.7656 73.6979 50.7917C73.7396 50.8073 73.8282 50.7344 73.8959 50.6979ZM67.2709 44.3073C67.9479 44.276 68.2032 44.276 68.4532 44.2448C68.5261 44.2396 68.5834 44.1406 68.6511 44.0833C68.5365 44.0104 68.4063 43.8646 68.3177 43.8854C68.0834 43.9323 67.8698 44.0521 67.2709 44.3073ZM64.9063 52.4427C64.8334 52.4219 64.7552 52.401 64.6823 52.3802C64.6771 52.4323 64.6771 52.4792 64.6771 52.5313C64.7552 52.5052 64.8282 52.474 64.9063 52.4427ZM64.8646 30.7917C64.8959 30.8333 64.9323 30.9167 64.9584 30.9167C65.0365 30.9115 65.1146 30.8646 65.1927 30.8385C65.1615 30.7917 65.1302 30.7083 65.099 30.7135C65.0209 30.7188 64.9427 30.7604 64.8646 30.7917ZM40.0157 51.3438C40.0729 51.3125 40.1302 51.276 40.1875 51.2448C40.1511 51.2031 40.1146 51.1354 40.0834 51.1354C40.0261 51.1458 39.974 51.1979 39.9167 51.224C39.9479 51.2656 39.9792 51.3073 40.0157 51.3438ZM86.7969 18.1198C86.6667 18.0781 86.5261 18.0104 86.375 17.9792C86.3438 17.974 86.2084 18.1146 86.224 18.1302C86.3073 18.224 86.4271 18.2969 86.5365 18.375C86.6198 18.2917 86.7084 18.2083 86.7969 18.1198ZM95.5886 49.5521C95.7136 49.5104 95.849 49.4583 95.9896 49.4063C95.9323 49.3542 95.8594 49.25 95.8177 49.2604C95.6667 49.2865 95.5313 49.3542 95.3855 49.4063C95.4532 49.4531 95.5157 49.5 95.5886 49.5521ZM94.1563 18.4635C94.3229 18.3854 94.4844 18.3125 94.6459 18.2396C94.573 18.1823 94.474 18.0677 94.4271 18.0833C94.2552 18.1302 94.1042 18.2135 93.9427 18.2865C94.0157 18.349 94.0834 18.4063 94.1563 18.4635ZM136.354 28.2813C136.5 28.2396 136.641 28.2031 136.792 28.1667C136.74 28.1094 136.693 28 136.635 27.9948C136.484 27.9792 136.323 28 136.167 28.0052C136.229 28.099 136.292 28.1875 136.354 28.2813ZM59.724 59.0625C59.6094 58.4688 59.4844 57.8698 59.3594 57.25C58.2813 57.3229 57.724 57.6615 57.3073 58.4219C56.8959 59.1719 56.3125 59.2604 55.5261 58.974C55.3646 58.9115 55.1979 58.8385 55.0625 58.7396C54.2188 58.0938 53.3021 58.1615 52.2865 58.5104C51.5261 58.7656 50.7032 58.8594 49.9115 59.0365C49.2969 59.1719 48.5834 59.1927 48.0938 59.5052C46.9948 60.2083 45.8542 60.5365 44.5469 60.5469C43.4011 60.5573 42.8542 61.276 42.3542 62.1667C44.8073 62.5052 46.9271 61.75 49.0886 61.2656C50.4011 60.9688 51.6719 60.5 52.9948 60.2604C55.0104 59.8854 57.0521 59.6615 59.0782 59.3854C59.3177 59.349 59.5365 59.1354 59.7604 59.0052C59.75 59.026 59.7396 59.0469 59.724 59.0625ZM33.6875 66.6094C31.8386 66.9323 30 67.3073 28.1615 67.6875C27.4636 67.8281 26.7604 67.974 26.0573 68.0521C23.8386 68.2865 21.6146 68.4948 19.3907 68.8125C18.9167 68.8854 18.4636 69.1771 17.7969 69.4583C18.1979 69.8125 18.3907 70.151 18.6667 70.2031C21.4323 70.6979 24.1094 69.9167 26.8125 69.4219C26.8959 69.4063 26.9792 69.3542 27.0417 69.2969C28.1667 68.2604 29.5886 68.1406 31.0261 68.0417C32.1563 67.9635 33.2969 67.849 34.4271 66.9167C33.974 66.7188 33.8177 66.5833 33.6875 66.6094ZM67.3646 56.651C65.7865 56.8021 64.2813 56.9531 62.6615 57.1354C62.4219 57.4375 62.1198 57.8229 61.8542 58.1615C62.3854 58.8906 63.5625 58.5365 63.7969 59.4219C64.0365 60.3177 64.7813 60.3958 65.6563 60.349C66.75 60.2865 67.7292 59.9271 68.7188 59.5521C68.8646 59.4948 68.9688 59.3438 69.1146 59.2188C69.1094 58.7656 69.1042 58.2917 69.099 57.5885C67.7813 57.8854 67.6771 57.0625 67.3646 56.651ZM36.8646 72.2969C36.8698 71.7656 36.8698 71.2344 36.8698 70.7969C35.9375 70.3594 35.0938 70.4323 34.4011 70.7292C33.5573 71.0833 32.974 70.5677 32.099 70.5C32.4011 71.6354 32.6823 72.6927 32.9479 73.7083C31.6979 74.3594 31.7917 73.0833 31.1719 72.8802C30.7709 73.0104 30.375 73.1406 29.9323 73.2917C30.3125 73.7656 30.5729 74.2448 30.9792 74.5573C31.2604 74.7708 31.8542 74.9531 32.1146 74.8177C33.0313 74.3333 34.1042 74.0625 34.8177 73.125C35.2865 73.4479 35.7292 73.8021 36.2188 74.0833C36.6407 74.3333 37.0625 74.151 37.3542 73.8073C37.7292 73.3594 37.5052 73.1094 37.0104 72.9219C36.8959 72.8802 36.9219 72.5313 36.8854 72.3281C36.8802 72.3177 36.875 72.3073 36.8646 72.2969ZM60.4011 71.4167C59.9532 71.5885 59.5104 71.7552 58.9792 71.9635C59.099 71.6146 59.1719 71.4063 59.2761 71.1042C58.9063 70.974 58.5 70.6771 58.1615 70.7396C56.9063 70.9635 55.6563 71.2656 54.4427 71.6354C53.4271 71.9479 53.2188 72.4271 53.2448 73.9531C53.5782 73.9427 53.9427 74.0208 54.2292 73.901C55.7813 73.2552 57.3125 72.6615 59.0886 72.849C59.9584 72.9427 60.3542 72.1979 60.3698 71.3802C60.3802 71.3906 60.3907 71.4063 60.4011 71.4167ZM19.7761 67.9427C21.7969 67.5365 23.8125 67.0938 25.8229 66.6563C26.0886 66.599 26.3073 66.2813 26.7084 65.9635C23.8386 65.3333 21.1511 65.8854 18.4896 66.125C18.4323 66.1302 18.3802 66.25 18.2969 66.3594C18.2552 66.7865 18.2084 67.2552 18.1563 67.8229C18.7552 67.8698 19.2865 68.0365 19.7761 67.9427ZM22.3021 71.151C21.9011 71.75 21.4167 72.3333 21.2709 72.9792C21.9063 73.5677 22.4948 73.901 23.2292 73.4323C24.5834 72.5573 26.0209 72.0573 27.6459 72.2708C27.7709 72.2917 27.9375 72.1042 28.0834 72.0156C26.1823 69.6875 25.1875 70.2396 22.3021 71.151ZM108.198 63.2083C107.797 63.1042 107.38 63.026 106.984 63.0781C105.875 63.2188 104.927 62.776 103.984 62.3646C103.724 62.25 104.12 61.5521 103.469 61.5C102.01 61.3854 100.542 61.0938 99.0365 61.5156C98.9896 62 98.948 62.3854 98.9063 62.8385C102.073 62.974 105.068 63.9323 108.198 63.2083ZM127.109 70.0469C125.615 69.526 124.094 69.5833 122.719 70.3594C122.521 70.4688 122.521 70.8854 122.385 71.2813C124.365 71.4219 126.172 71.7448 128.323 71.1771C127.818 70.6927 127.531 70.1979 127.109 70.0469ZM138.307 71.8958C138.464 72.2969 138.62 72.7135 138.932 73.5365C139.974 72.2917 141.068 72.7865 142.146 73.0417C142.563 73.1354 143.01 73.2604 143.411 73.2031C143.776 73.151 144.099 72.8698 144.813 72.4948C142.443 71.4115 140.484 70.2344 138.307 71.8958ZM135.104 70.8802C133.641 70.9792 132.042 70.4896 130.708 71.4063C130.979 72.2292 131.682 72.4427 132.323 72.4427C133.943 72.4375 135.672 73.0677 137.578 71.6615C136.51 71.2969 135.781 70.8385 135.104 70.8802ZM115.036 70.875C116.016 70.9375 117.005 70.9427 117.99 70.9271C118.484 70.9219 118.99 70.849 119.464 70.724C119.646 70.6771 119.891 70.3698 119.87 70.2031C119.833 69.9323 119.63 69.4792 119.458 69.4635C118.464 69.3542 117.448 69.2604 116.469 69.3698C115.667 69.4531 114.901 69.8177 113.547 70.2552C114.339 70.5938 114.682 70.849 115.036 70.875ZM37.8229 75.7396C39.2865 75.7448 40.6979 75.4635 42.0521 74.8854C42.3073 74.7708 42.7813 74.7708 42.4792 74.1771C40.5104 73.7865 38.5365 74.4844 36.3334 74.5469C36.6146 75.6198 37.224 75.7396 37.8229 75.7396ZM21.5 64.5469C24.1563 64.4896 26.9948 63.7656 29.9063 62.3125C27.2969 62.4219 23.6771 63.4323 21.5 64.5469ZM45.5104 73.3333C45.3646 73.3229 45.1719 73.4323 45.0573 73.5313C44.9479 73.6302 44.8073 73.8698 44.849 73.9219C44.9896 74.0833 45.2448 74.3333 45.375 74.2917C46.0938 74.0781 46.7865 73.7865 47.599 73.4896C48.0469 73.7031 48.5573 73.9427 49.099 74.2031C49.9063 73.9219 50.9115 73.8125 50.7657 72.5156C48.8698 72.2448 47.2917 73.5208 45.5104 73.3333ZM17.2292 19.4167C15.6615 19.6823 14.1042 19.901 12.5729 20.2656C11.5677 20.5104 10.5938 20.9479 9.63024 21.3333C9.53648 21.375 9.5469 21.6302 9.46357 22C12.7344 21.9323 14.0521 21.4792 17.2292 19.4167ZM113.432 11.5417C111.839 11.3958 111.682 11.474 111.615 12.4323C111.599 12.7344 111.615 13.0365 111.62 13.3646C110.802 13.6094 110.104 13.776 109.474 14.0365C109.208 14.151 109.083 14.4583 108.755 14.8385C110.224 14.8594 111.354 14.8802 112.474 14.9063C112.625 13.9792 112.786 13.1198 112.901 12.2604C112.943 11.9375 112.88 11.6042 113.443 11.5365C113.438 11.5365 113.438 11.5417 113.432 11.5417ZM137.443 17.5365C136.948 17.5469 136.328 17.4167 135.979 17.5885C135.021 18.0729 134.151 18.1615 133.141 17.5469C133.016 17.4688 132.724 17.5677 132.51 17.5885C133.839 18.2344 135.182 18.6406 136.547 18.9896C137.531 19.2396 138.219 18.875 138.979 18.3802C138.359 18.0208 137.938 17.776 137.516 17.5365C137.49 17.5365 137.469 17.5365 137.443 17.5365ZM66.9688 66.8854C66.6771 66.7448 66.375 66.4688 66.099 66.5C65.0052 66.6198 63.9011 66.7917 62.8334 67.0729C62.4479 67.1719 62.2188 67.6198 62.6615 68.099C64.0625 67.8438 65.5104 67.5938 66.9532 67.3594C66.9584 67.1979 66.9636 67.0417 66.9688 66.8854ZM90.599 68.5833C90.5365 69.151 90.9115 69.25 91.1823 69.3854C91.4688 69.5208 91.8438 69.724 92.099 69.651C93.0313 69.3906 94.0834 69.75 95.3021 68.9844C93.5677 67.8906 92.0677 68.3385 90.599 68.5833ZM23.6354 77.2344C23.1875 77.1719 22.8542 77.599 22.8907 78.0417C22.9375 78.4896 23.2136 78.8906 23.6667 78.7969C24.8229 78.5521 26.0729 78.8385 27.1771 78.1146C26.2448 76.9896 24.8386 77.4063 23.6354 77.2344ZM99.8698 10.7656C99.2396 10.9219 98.599 11.0417 97.9636 11.1771C98.0209 11.6198 97.6771 12.1042 98.323 12.5677C98.8177 12.4115 99.3907 12.0729 99.9167 12.1198C101.604 12.2604 101.682 11.3958 102.036 10.1354C101.005 10.4323 100.448 10.625 99.8698 10.7656ZM133.656 65.4896C133.797 65.5104 133.964 65.3854 134.193 65.3021C134.234 64.8958 134.286 64.4531 134.339 63.9531C133.474 63.849 132.714 63.7604 132.016 63.6875C131.698 64.0833 131.458 64.3854 131.234 64.6667C131.844 65.599 132.818 65.3646 133.656 65.4896ZM81.8594 11.1719C81.5521 11.1302 81.2084 11.125 80.9063 11.1875C79.5157 11.4688 78.1667 11.9583 76.6875 11.5573C76.599 11.5365 76.2396 11.8073 76.2657 11.8438C76.375 12.0313 76.5469 12.3073 76.7604 12.3385C78.6198 12.5885 80.4584 12.3646 82.3021 12.0573C82.5417 11.6458 82.6042 11.276 81.8594 11.1719ZM117.427 62.0677C117.047 62.0833 116.599 62.3281 116.339 62.5938C116.073 62.8646 115.948 63.2969 116.417 63.6458C117.01 63.3906 117.589 63.0313 118.229 62.9063C118.927 62.776 119.766 63.3438 120.688 62.2292C119.302 62.1406 118.359 62.0365 117.427 62.0677ZM49.4688 62.9635C49.6094 62.9271 49.6823 62.5833 49.8542 62.2604C47.7552 62.3594 46 63.026 44.4115 64.1719C45.9948 63.3385 47.7865 63.3385 49.4688 62.9635ZM56.8854 12.3073C56.7448 11.8125 56.6771 11.3073 56.5417 10.6406C56.1875 10.901 55.8073 11.0729 55.8282 11.1875C55.9792 12.1458 55.4375 12.7188 54.224 13.0208C53.9167 13.099 53.6511 13.2813 53.0052 13.5885C54.7032 13.6042 55.9167 13.6198 57.4271 13.651C57.2032 13.1094 57 12.7135 56.8854 12.3073ZM139.802 12.7083C138.557 12.5885 138.417 12.7708 138.656 14.0469C140.083 14.0469 141.516 14.1198 143.385 13.151C141.693 12.9323 140.75 12.8021 139.802 12.7083ZM37.5469 65.9531C39.4375 65.6042 41.0729 65.4167 42.5886 64.6979C38.7292 64.901 38.7188 64.9271 37.5469 65.9531ZM128.49 16.6094C126.995 15.8906 125.516 15.9167 123.958 16.1146C126.109 17.7031 126.75 17.7917 128.49 16.6094ZM5.15628 24.5365C6.05211 24.3802 6.94794 24.224 7.84898 24.0729C7.19794 23.3802 8.80211 23.2292 8.65107 22.6563C7.16669 22.5885 6.20315 23.5365 5.01565 24.0417C5.06253 24.2083 5.1094 24.375 5.15628 24.5365ZM149.141 73.3698C149.469 73.3333 149.771 73.125 149.589 72.6302C148.734 72.4688 147.839 72.3021 146.891 72.1302C146.813 72.5625 146.76 72.8698 146.646 73.5365C147.651 73.474 148.401 73.4583 149.141 73.3698ZM151.406 67.5677C149.828 67.276 148.526 66.651 146.974 67.3854C148.547 68.3385 149.828 68.1198 151.406 67.5677ZM106.969 70.3073C107.479 70.1042 108.031 69.9635 108.49 69.6823C108.938 69.4115 109.646 69.6198 110.021 69.026C108.583 68.7188 107.833 68.6563 107.281 69C106.974 69.1927 106.833 69.6198 106.615 69.9427C106.734 70.0625 106.849 70.1823 106.969 70.3073ZM82.3959 65.349C80.5729 65.4844 79.2813 64.8333 78.0052 65.776C79.9479 66.2865 80.4636 66.2656 82.3959 65.349ZM49.4063 9.27604C49.7136 9.60417 50.7136 9.54687 51.0782 9.18229C51.4636 8.8125 51.4115 8.41146 50.9532 8.15625C50.3229 7.8125 49.6927 7.36979 48.5104 7.97396C48.8646 8.48958 49.0782 8.91146 49.4063 9.27604ZM30.8021 77.8854C31.2396 77.5365 31.4063 76.8646 31.0469 76.3802C30.9115 76.2031 30.4479 76.1198 30.1927 76.1979C29.6094 76.375 29.4219 76.8594 29.6511 77.3281C29.9323 77.9115 30.4532 78.1667 30.8021 77.8854ZM14.9896 22.5417C14.4948 22.3281 13.9479 22.099 13.3802 21.8594C12.625 22.7188 12.9584 23.3333 13.1927 23.9792C14.5677 24.1406 14.7657 23.401 14.9896 22.5417ZM78.3698 69.5052C78.4792 69.4427 78.5417 69.224 78.5157 69.0885C78.4948 68.9635 78.3438 68.7604 78.2396 68.7604C77.2344 68.724 76.3073 68.9375 75.2865 69.75C76.5677 70.2396 77.4844 70.0417 78.3698 69.5052ZM143.516 19.4271C143.568 19.7396 143.62 20.0469 143.682 20.4115C144.375 20.5052 144.979 20.5938 145.589 20.6771C146.24 20.7656 146.911 20.9531 147.688 20.7031C145.833 19.651 145.828 19.651 143.417 19.4948C143.453 19.474 143.484 19.4479 143.516 19.4271ZM153.391 22.0365C154.464 23.3073 155.609 22.8385 156.755 22.401C155.656 22.0833 154.536 21.3125 153.391 22.0365ZM36.4688 16.5417C35.3802 16.875 34.0573 16.7656 32.6927 18.1719C34.5834 17.7865 35.7344 17.5781 36.4688 16.5417ZM58.1407 60.724C56.7604 60.5365 55.7917 60.8385 54.4792 61.099C55.8125 61.8698 56.7813 61.599 58.1407 60.724ZM148.844 15.6354C149.276 15.776 149.979 15.1979 149.719 14.9427C149.479 14.6979 149.099 14.4688 148.734 14.375C148.13 14.2135 147.438 14.0833 147.276 14.9427C147.76 15.1615 148.276 15.4479 148.844 15.6354ZM2.36461 29.2604C3.54169 29.0313 4.48961 28.8594 4.9844 27.8438C4.03128 28.0313 2.76044 27.8542 2.36461 29.2604ZM74.2813 65.5469C73.9896 65.6146 73.7865 66.0052 73.4479 66.349C75.2084 66.4792 75.2032 66.4792 76.0261 65.5052C75.3438 65.5052 74.7865 65.4323 74.2813 65.5469ZM131.979 13.5469C131.953 13.6563 132.344 13.9479 132.563 13.9792C132.906 14.0208 133.266 13.9062 133.646 13.8594C133.385 13.2812 133.198 12.8542 132.74 11.8438C132.313 12.7448 132.078 13.1354 131.979 13.5469ZM76.5417 61.6771C76.6146 61.6406 76.6875 61.5885 76.9792 61.4063C76.0677 61.5156 75.4115 61.5938 74.7552 61.6771C75.6354 62.1198 75.6354 62.1198 76.5417 61.6771ZM74.875 11.2813C73.5729 11.4635 72.1667 10.9792 71.5729 12.5313C72.9948 12.6406 74.0834 12.5208 74.875 11.2813ZM22.9271 18.9844C24.0157 18.9844 24.7032 18.7604 25.1511 18.0573C24.6823 17.7969 24.3073 17.5885 23.5834 17.1875C23.3073 17.9375 23.125 18.4427 22.9271 18.9844ZM22.6302 22.9635C23.3438 22.8229 23.8802 22.2083 23.5834 21.901C23.3854 21.6979 22.8021 21.4844 22.6302 21.5833C22.1719 21.8333 21.8438 22.2448 21.2292 22.8177C21.9271 22.8958 22.2969 23.0313 22.6302 22.9635ZM24.7761 80.7917C24.9636 81.1146 25.1511 81.4375 25.4011 81.875C25.8177 81.4896 26.1511 81.1823 26.6354 80.7396C25.7813 80.3281 25.2657 80.0729 24.7761 80.7917ZM53.7344 22.9635C54.9011 22.7448 55.9844 22.5521 57.3021 22.3281C54.2396 22.1875 54.2344 22.1979 53.7344 22.9635ZM161.401 19.4167C161.526 19.4271 161.74 19.2552 161.745 19.151C161.75 19.0208 161.599 18.7865 161.469 18.7448C160.911 18.5781 160.328 18.4635 159.406 18.2552C159.948 19.4219 160.719 19.3594 161.401 19.4167ZM60.3802 71.3854C61.8698 71.8073 61.8646 71.8073 62.5052 70.5C61.4844 70.1354 61 70.9167 60.4011 71.4167C60.4011 71.4167 60.3698 71.3802 60.3802 71.3854ZM49.3542 69.7917C48.5886 69.8958 47.8229 69.974 47.0625 70.1146C46.7813 70.1719 46.3177 70.2135 46.6354 70.7917C47.5938 70.5417 48.5729 70.3021 49.5469 70.0677C49.4844 69.974 49.4219 69.8854 49.3542 69.7917ZM146.38 70.3438C147.313 71.0729 148.182 71.1927 149.151 70.625C147.938 70.1302 147.932 70.125 146.38 70.3438ZM57.3802 63.9167C58.0417 63.7344 58.6979 63.5573 59.3594 63.375C59.4427 63.3542 59.5157 63.3125 59.599 63.2813C59.5625 63.2656 59.5313 63.2448 59.4063 63.1823C58.7969 63.2969 58.1146 63.4375 57.4323 63.5729C57.4167 63.6875 57.3959 63.8021 57.3802 63.9167ZM36.7813 23.4948C36.6615 23.5781 36.599 23.8229 36.6563 23.9271C36.7188 24.026 36.9844 24.1146 37.1459 24.0885C37.9792 23.9479 38.6615 23.6042 39.1094 22.9323C38.224 22.8698 37.4427 23.026 36.7813 23.4948ZM28.6823 70.3906C29.4063 70.1458 30.125 69.9115 30.849 69.6771C30.8386 69.6354 30.8229 69.599 30.8073 69.5573C30.0886 69.7917 29.3646 70.026 28.6407 70.2656C28.6563 70.3073 28.6667 70.349 28.6823 70.3906ZM111.813 62.0365C111.724 62.2135 111.953 62.7344 112.13 62.7813C112.672 62.9271 113.078 62.6927 113.208 61.7917C112.646 61.8438 112.109 61.4583 111.813 62.0365ZM156.24 17.276C155.349 16.901 153.99 17.0313 154.417 17.3281C154.766 17.5625 155.333 17.6146 155.813 17.7188C155.995 17.7604 156.198 17.7083 156.615 17.6927C156.359 17.401 156.323 17.3073 156.24 17.276ZM70.2188 69.7813C71.4479 70.3229 71.4427 70.3229 72.2084 69.4063C71.4532 69.099 70.8594 69.2604 70.2188 69.7813ZM23.8125 75.9479C23.3802 75.4948 23.5417 75.0052 23.8386 74.474C23.474 74.5729 23.1459 74.6667 22.8282 74.7552C22.9323 76 22.9323 76 23.875 75.974C23.8542 75.9635 23.8334 75.9583 23.8125 75.9479ZM151.958 73.3333C152.99 74.0781 152.984 74.0781 153.911 73.5313C152.865 73.0833 152.859 73.0885 151.958 73.3333ZM56.349 7C57.0677 6.92708 57.7396 6.44271 57.6459 6.07813C57.6302 6.01563 57.5469 5.9375 57.4688 5.91667C57.0365 5.80729 56.2188 6.23438 56 6.68229C55.9688 6.74479 56.0469 6.82813 56.0782 6.90104C56.1667 6.9375 56.2604 7.01042 56.349 7ZM143.417 19.4948C142.604 18.7031 142.089 18.5625 141.172 18.9375C141.057 18.9896 141.005 19.2292 141.057 19.3594C141.104 19.474 141.354 19.651 141.479 19.6458C142.161 19.5938 142.839 19.5052 143.516 19.4271C143.484 19.4479 143.453 19.474 143.417 19.4948ZM16.9479 22.9219C17.6823 23.974 17.6823 23.974 18.9688 23.4948C18.3854 22.875 17.9427 22.4167 16.9479 22.9219ZM154.068 68.6563C154.661 68.8906 155.245 68.724 156.135 68.4531C155.292 68.3125 154.734 68.224 154.177 68.1354C154.141 68.3125 154.104 68.4844 154.068 68.6563ZM2.70836 25.8125C2.9844 25.8073 3.38024 25.8802 3.50003 25.7708C3.7344 25.5625 3.81253 25.25 3.95315 24.9844C3.67711 24.9635 3.40628 24.9479 2.92711 24.9167C2.84378 25.2604 2.77607 25.5365 2.70836 25.8125ZM89.0625 11.9635C88.7448 11.8438 88.4115 11.75 88.0834 11.6458C87.9792 11.8281 87.875 12.0156 87.7709 12.2031C88.1302 12.2708 88.4896 12.3437 88.849 12.401C88.9271 12.4115 89.0261 12.3438 89.3334 12.2396C89.1823 12.0833 89.1459 11.9948 89.0625 11.9635ZM31.2761 64.3333C31.0417 64.3281 30.7865 64.474 30.5469 64.5469C30.5677 64.6563 30.5886 64.7656 30.6094 64.8698C31.1511 64.8177 31.6927 64.7604 32.7448 64.6667C31.9167 64.4688 31.6042 64.3438 31.2761 64.3333ZM51.0729 66.4219C51.0729 66.4635 51.3959 66.599 51.5 66.5521C51.6875 66.4583 51.8282 66.2708 51.9844 66.1198C51.7969 66.0156 51.6094 65.9063 51.3021 65.7344C51.1927 66.0365 51.0938 66.2292 51.0729 66.4219ZM48.0677 24.349C48.2032 24.25 48.3334 24.0677 48.3282 23.9427C48.3177 23.8385 48.0834 23.6719 47.9688 23.6927C47.5052 23.7604 47.0469 23.8906 45.9792 24.1458C47.0417 24.4479 47.4375 24.7969 48.0677 24.349ZM104.87 65.9583C104.359 65.9844 103.906 66.0104 103.292 66.0469C104.427 66.9375 104.453 66.9375 104.87 65.9583ZM42.1354 14.7865C42.099 14.9635 42.3125 15.151 42.4167 15.3333C42.599 15.1667 42.8959 15.0104 42.9427 14.8333C42.9948 14.651 42.8125 14.4427 42.6927 14.1406C42.4323 14.4219 42.1667 14.599 42.1354 14.7865ZM68.2396 7.07813C67.3646 7.26563 66.9011 7.36979 66.0938 7.54687C67.0625 7.77083 67.5521 7.72917 68.2396 7.07813ZM45.8542 71.9323C46.1927 71.8125 46.5365 71.6875 47.2188 71.4531C46.5 71.5417 46.1407 71.5885 45.7761 71.6354C45.8021 71.7344 45.8282 71.8333 45.8542 71.9323ZM43.6771 66.8385C43.2865 66.9427 42.8959 67.0417 42.5052 67.151C42.5157 67.1875 42.5209 67.2292 42.5313 67.2656C42.9271 67.1875 43.3282 67.1146 43.724 67.0417C43.7084 66.9688 43.6927 66.9063 43.6771 66.8385ZM34.2813 76.2708C34.7032 76.1406 35.0625 76.026 35.4688 75.901C34.5677 75.2656 34.5625 75.2708 34.2813 76.2708ZM87.2032 68.8073C87.0625 68.7656 86.875 68.6563 86.7865 68.7083C86.599 68.8125 86.4688 68.9948 86.3125 69.151C86.4584 69.2031 86.6042 69.2552 86.8229 69.3385C86.9427 69.1667 87.073 68.9896 87.2032 68.8073ZM87.1771 61.2969C87.1823 61.2448 86.9271 61.1875 86.7917 61.1354C86.6719 61.4063 86.5469 61.6719 86.4271 61.9427C86.5834 61.9948 86.7344 62.0469 87.0417 62.1458C87.099 61.8438 87.1719 61.5729 87.1771 61.2969ZM92.1459 11.6406C92.0157 11.7083 91.9219 12.0052 92 12.0833C92.4115 12.4948 92.875 12.4271 93.349 12.0781C93.0209 11.8021 92.8386 11.2969 92.1459 11.6406ZM97.0469 65.651C96.75 65.6042 96.4532 65.5521 96.1563 65.5208C96.1042 65.5208 95.9792 65.6354 95.9896 65.6615C96.0313 65.7813 96.1094 65.974 96.1823 65.9792C96.4636 65.9948 96.75 65.9479 97.0365 65.9219C97.0417 65.8333 97.0417 65.7448 97.0469 65.651ZM102.5 69.5052C102.375 69.4844 102.229 69.6094 102.089 69.6719C102.234 69.8125 102.38 69.9531 102.526 70.0938C102.62 69.9948 102.714 69.8958 102.802 69.7969C102.703 69.6927 102.615 69.5208 102.5 69.5052ZM113.443 11.5365C113.667 10.9844 113.891 10.4323 114.115 9.89063C113.609 9.67187 113.245 9.8125 113.224 10.1719C113.203 10.6198 113.354 11.0833 113.432 11.5417L113.443 11.5365ZM139.005 69.4063C138.505 68.7083 138.177 68.625 137.786 69.1042C137.745 69.1563 137.708 69.276 137.74 69.3021C137.839 69.4115 137.984 69.5729 138.089 69.5625C138.422 69.5313 138.74 69.4323 139.068 69.3646C139.047 69.375 139.026 69.3906 139.005 69.4063ZM144.135 69.5781C144.042 69.5573 143.844 69.7344 143.823 69.8438C143.802 69.9531 143.922 70.1563 144.031 70.2083C144.432 70.3802 144.839 70.474 145.255 69.9115C144.854 69.7813 144.5 69.6458 144.135 69.5781ZM164.417 20.026C164.25 19.8542 164.109 19.599 163.901 19.5313C163.698 19.4688 163.422 19.5938 163.177 19.6406C163.333 19.8333 163.484 20.0313 163.688 20.3021C163.979 20.1927 164.198 20.1094 164.417 20.026ZM57.7917 68.1979C57.7344 68.1042 57.5677 68.0208 57.4479 68.0208C57.3698 68.026 57.2917 68.1875 57.2136 68.2813C57.3438 68.3542 57.474 68.4271 57.6198 68.5104C57.6823 68.401 57.8282 68.2552 57.7917 68.1979ZM152.078 66.9323C152.24 66.9063 152.385 66.8438 152.542 66.7917C152.318 66.7865 152.099 66.7813 151.776 66.7813C151.948 66.8698 152.026 66.9479 152.078 66.9323ZM70.7917 5.42187C70.474 5.27604 70.1719 5.10938 69.8386 5C69.7813 4.97917 69.5782 5.18229 69.4427 5.28646C69.7136 5.47396 69.9844 5.66667 70.2657 5.85938C70.5261 5.64063 70.6563 5.53125 70.7917 5.42187ZM153.495 23.7552C153.385 23.6719 153.276 23.5417 153.151 23.5208C153.01 23.4948 152.849 23.5625 152.693 23.5885C152.797 23.6875 152.901 23.7865 153.005 23.8854C153.172 23.8385 153.333 23.7969 153.495 23.7552ZM26.75 74.0625C26.7552 74.0417 26.7604 74.0156 26.7657 73.9896C26.6875 74.0156 26.6146 74.0417 26.5365 74.0677C26.6094 74.0677 26.6823 74.0677 26.75 74.0625ZM11.375 64.7344C11.375 64.6979 11.2292 64.6667 11.1511 64.6302C11.0313 64.8333 10.9063 65.0365 10.7865 65.2396C10.9219 65.2813 11.0625 65.3177 11.2917 65.3854C11.3229 65.1563 11.3646 64.9427 11.375 64.7344ZM8.29169 62.1823C8.44794 61.9792 8.62503 61.7813 8.72919 61.5625C8.75524 61.5208 8.50524 61.3906 8.38544 61.2969C8.21878 61.4844 8.05211 61.6719 7.89065 61.849C8.05732 61.9896 8.17711 62.0885 8.29169 62.1823ZM117.339 15.125C117.344 15.1198 117.208 15.0365 117.135 14.9896C117.026 15.0885 116.922 15.1823 116.818 15.2813C116.885 15.3281 116.964 15.375 117.036 15.4219C117.141 15.3229 117.25 15.2292 117.339 15.125ZM117.245 10.3802C116.99 10.2917 116.719 10.1979 116.453 10.1927C116.344 10.1927 116.245 10.4167 116.141 10.5365C116.339 10.5781 116.536 10.6354 116.734 10.6458C116.932 10.6563 117.135 10.6146 117.333 10.5938C117.307 10.5208 117.307 10.401 117.245 10.3802ZM118.505 13.3698C118.557 13.2708 118.411 13.1042 118.354 12.9688C118.167 13.0625 117.948 13.1458 117.797 13.2708C117.76 13.2969 117.964 13.4896 118.052 13.6042C118.208 13.5313 118.448 13.4792 118.505 13.3698ZM114.953 67.1198C115.073 67.1302 115.208 66.9844 115.333 66.9063C115.193 66.7865 115.057 66.6406 114.891 66.5677C114.849 66.5469 114.693 66.75 114.589 66.849C114.714 66.9479 114.823 67.1042 114.953 67.1198ZM130.958 17.474C130.969 17.3958 130.984 17.3125 130.99 17.2344C130.911 17.2448 130.813 17.2448 130.755 17.276C130.714 17.3021 130.729 17.3802 130.719 17.4323C130.797 17.4479 130.88 17.4635 130.958 17.474ZM132.115 68.1198C132.042 68.0833 131.958 68.0052 131.896 68.0156C131.771 68.0469 131.651 68.1198 131.531 68.1771C131.641 68.2604 131.745 68.3438 131.854 68.4271C131.938 68.3229 132.026 68.2188 132.115 68.1198ZM137.443 17.5365C137.51 17.4844 137.635 17.4323 137.635 17.3698C137.635 17.2135 137.578 17.0469 137.547 16.8906C137.49 16.9583 137.396 17.0208 137.396 17.0938C137.401 17.2344 137.458 17.3854 137.505 17.5365C137.516 17.5365 137.443 17.5365 137.443 17.5365ZM109.823 61.7917C109.76 61.7708 109.682 61.7865 109.609 61.7865C109.656 61.8646 109.703 61.9427 109.75 62.0208C109.807 61.9896 109.865 61.9583 109.927 61.9219C109.891 61.8802 109.87 61.8073 109.823 61.7917ZM109.188 66.4531C109.109 66.4583 109.057 66.6458 108.995 66.7552C109.208 66.8073 109.427 66.8854 109.641 66.8958C109.703 66.901 109.776 66.7031 109.896 66.526C109.62 66.4896 109.401 66.4375 109.188 66.4531ZM136.203 69.151C136.271 69.1875 136.339 69.2396 136.411 69.2552C136.484 69.2656 136.563 69.2396 136.641 69.2344C136.594 69.125 136.542 69.0208 136.495 68.9167C136.396 68.9896 136.302 69.0729 136.203 69.151ZM93.3177 61.1146C93.4688 61.5104 93.625 61.901 94.2657 61.5365C93.9115 61.4063 93.599 61.2865 93.2813 61.1667C93.2917 61.1458 93.3073 61.1302 93.3177 61.1146ZM93.2709 61.1719C92.9375 61.151 92.6146 61.1094 92.1042 61.0573C92.6615 61.6302 92.9844 61.3177 93.3177 61.1146C93.3177 61.1146 93.2813 61.1667 93.2709 61.1719ZM90.1042 65.7396C90.1094 65.7396 90.099 65.5833 90.0938 65.5833C89.9427 65.5781 89.8021 65.5885 89.6563 65.5938C89.6563 65.651 89.6615 65.7083 89.6667 65.776C89.8073 65.7656 89.9584 65.7552 90.1042 65.7396ZM84.1615 61.0833C84.0261 61.0938 83.8959 61.2292 83.7657 61.3073C83.9063 61.375 84.0469 61.4948 84.1823 61.4896C84.3177 61.4844 84.4427 61.349 84.5729 61.2656C84.4323 61.2031 84.2969 61.0781 84.1615 61.0833ZM78.0052 8.83333C77.9323 8.71354 77.8594 8.59375 77.7865 8.47396C77.6198 8.53646 77.4532 8.59896 77.2813 8.66667C77.3698 8.77604 77.4584 8.88542 77.5469 8.99479C77.6979 8.94271 77.849 8.88542 78.0052 8.83333ZM25.9532 16.3854C25.9584 16.375 25.7969 16.3385 25.7136 16.3177C25.6459 16.4479 25.5677 16.5781 25.5157 16.7083C25.5104 16.7188 25.6719 16.7552 25.7552 16.776C25.8282 16.6458 25.9011 16.5156 25.9532 16.3854ZM149.688 66.3281C149.625 66.3333 149.557 66.3438 149.49 66.3542C149.563 66.3854 149.635 66.4115 149.703 66.4427C149.698 66.4063 149.693 66.3646 149.688 66.3281ZM158.953 22.8698C158.792 22.8281 158.599 22.9271 158.422 22.9688C158.557 23.0781 158.672 23.25 158.823 23.2865C158.984 23.3229 159.177 23.2344 159.359 23.1979C159.224 23.0833 159.109 22.901 158.953 22.8698ZM154.604 71.2031C154.328 71.1563 154.047 71.1094 153.771 71.0625C153.755 71.1302 153.745 71.1927 153.734 71.2604C154.01 71.3177 154.286 71.375 154.563 71.4323C154.578 71.3542 154.589 71.2813 154.604 71.2031ZM42.0365 17.5C42.1875 17.474 42.3177 17.3281 42.4584 17.2344C42.2917 17.1979 42.1094 17.1198 41.9532 17.151C41.7969 17.1771 41.6667 17.3229 41.5261 17.4167C41.6979 17.4531 41.8802 17.5313 42.0365 17.5ZM65.4584 8.63542C65.3438 8.57812 65.224 8.52083 65.1094 8.46875C65.0782 8.53646 65 8.61458 65.0209 8.66667C65.0365 8.71354 65.1667 8.72917 65.2448 8.76042C65.3177 8.71875 65.3854 8.67708 65.4584 8.63542ZM71.1823 66.4531C71.1719 66.3854 71.125 66.3281 71.0886 66.2708C71.0157 66.3177 70.9427 66.3698 70.875 66.4219C70.9375 66.4583 70.9948 66.4948 71.0677 66.5365C71.0938 66.5104 71.1875 66.474 71.1823 66.4531ZM61.1146 8.19792C61.0365 8.20312 60.9584 8.26562 60.875 8.29687C60.9532 8.33333 61.0261 8.39062 61.099 8.38542C61.1771 8.38021 61.2552 8.31771 61.3386 8.28125C61.2657 8.25521 61.1875 8.19792 61.1146 8.19792ZM59.724 59.0625C59.8594 59.0625 60 59.0625 60.1354 59.0573C60.0104 59.0365 59.8907 59.0208 59.7657 59.0052C59.7604 59.0052 59.724 59.0625 59.724 59.0625ZM41.2761 12.1563C41.3646 12.1615 41.4636 12.1094 41.5573 12.0833C41.4636 12.0156 41.375 11.9427 41.2813 11.875C41.2136 11.9323 41.1511 11.9896 41.0834 12.0469C41.1459 12.0885 41.2032 12.1563 41.2761 12.1563ZM53.4948 66.1146C53.4688 66.0313 53.4375 65.9531 53.4167 65.8698C53.3542 65.901 53.2813 65.9167 53.2552 65.9583C53.2344 65.9948 53.2813 66.0625 53.2969 66.1094C53.3646 66.1094 53.4271 66.1094 53.4948 66.1146ZM40.25 62.2604C40.2032 62.2865 40.1511 62.3177 40.1042 62.3438C40.1407 62.3906 40.1719 62.4323 40.2344 62.526C40.2396 62.4115 40.2448 62.3333 40.25 62.2604ZM36.7084 68.349C36.6771 68.3125 36.6459 68.2396 36.6198 68.2448C36.5573 68.2604 36.5 68.3021 36.375 68.3698C36.5313 68.3594 36.6198 68.3542 36.7084 68.349ZM36.8646 72.2969C37.0104 72.2604 37.1563 72.2344 37.2917 72.1823C37.3594 72.1563 37.4011 72.0729 37.4584 72.0156C37.4011 72.0469 37.3438 72.0781 37.2865 72.1042C37.1563 72.1771 37.0209 72.25 36.8854 72.3229C36.8854 72.3281 36.8646 72.2969 36.8646 72.2969ZM78.9584 6.67708C78.8698 6.66146 78.7813 6.64583 78.6927 6.625C78.7032 6.6875 78.7136 6.74479 78.7292 6.80208C78.8073 6.76042 78.8802 6.71875 78.9584 6.67708ZM89.0052 8.83333C89.0521 8.78646 89.0313 8.70833 89.0417 8.64583C88.9323 8.66146 88.8282 8.68229 88.7136 8.70313C88.7448 8.76042 88.7709 8.81771 88.8021 8.875C88.8698 8.85938 88.9792 8.86458 89.0052 8.83333ZM6.18232 25.8281C6.17711 25.776 6.16669 25.7292 6.16148 25.6771C6.09898 25.7188 6.03648 25.7604 5.97398 25.8021C6.04169 25.8073 6.1094 25.8177 6.18232 25.8281ZM89.6927 6.39583C89.6355 6.35938 89.5834 6.30208 89.5209 6.29687C89.4584 6.29167 89.3855 6.34375 89.3177 6.36979C89.3698 6.40104 89.4219 6.44271 89.4792 6.47396C89.5521 6.44792 89.625 6.42187 89.6927 6.39583ZM97.9115 9C97.8334 8.94792 97.724 8.84896 97.698 8.85938C97.5886 8.91146 97.4948 8.99479 97.3959 9.06771C97.4844 9.08333 97.573 9.10417 97.6667 9.11979C97.7448 9.07813 97.8282 9.04167 97.9115 9ZM9.54169 57.6667C9.39065 57.6667 9.24482 57.651 9.09898 57.6719C9.05732 57.6771 9.02086 57.7917 8.9844 57.8542C9.13544 57.8594 9.28648 57.8646 9.43753 57.8698C9.46878 57.8021 9.50524 57.7344 9.54169 57.6667ZM140.813 14.9531C140.75 14.9063 140.688 14.8281 140.615 14.8125C140.536 14.7917 140.443 14.8333 140.359 14.849C140.427 14.901 140.49 14.9479 140.557 15C140.641 14.9844 140.729 14.9688 140.813 14.9531ZM139.073 69.3646C139.281 69.4896 139.49 69.6198 139.698 69.75C139.734 69.6615 139.776 69.5729 139.813 69.4896C139.547 69.4583 139.276 69.4323 139.005 69.4063C139.026 69.3906 139.047 69.375 139.073 69.3646ZM148.115 16.6823C148.135 16.6615 148.005 16.5313 147.927 16.5156C147.849 16.4948 147.677 16.5573 147.677 16.5833C147.698 16.7135 147.76 16.8385 147.813 16.9688C147.922 16.8698 148.036 16.7865 148.115 16.6823ZM142.474 69.8333C142.333 69.8021 142.177 69.875 142.026 69.9063C142.094 70.0104 142.135 70.1823 142.224 70.2031C142.349 70.2396 142.5 70.1667 142.641 70.1406C142.589 70.0313 142.547 69.849 142.474 69.8333ZM151.229 21.0938C151.177 21.0781 151.089 21.1719 151.016 21.224C151.135 21.3125 151.245 21.4583 151.375 21.4844C151.479 21.5052 151.615 21.3802 151.745 21.3177C151.563 21.2344 151.401 21.1458 151.229 21.0938ZM153.036 16.8229C153.063 16.7708 153.094 16.724 153.12 16.6771C153.042 16.6458 152.969 16.599 152.891 16.5938C152.859 16.5938 152.828 16.6771 152.802 16.724C152.88 16.7552 152.958 16.7865 153.036 16.8229ZM152.797 15.6719C152.865 15.7031 152.927 15.7292 152.995 15.7604C153 15.7188 153 15.6823 153.005 15.6458C152.938 15.6563 152.865 15.6615 152.797 15.6719ZM165.188 24.4375C165.135 24.375 165.089 24.2865 165.021 24.2656C164.953 24.2396 164.859 24.2813 164.776 24.2969C164.828 24.3542 164.88 24.4115 164.938 24.4688C165.01 24.4583 165.104 24.4479 165.188 24.4375ZM165.651 26.5469C165.635 26.5 165.635 26.4167 165.615 26.4115C165.547 26.3906 165.469 26.401 165.323 26.401C165.469 26.4688 165.563 26.5052 165.651 26.5469ZM156.714 74.2344C156.667 74.1719 156.604 74.0521 156.573 74.0625C156.469 74.0833 156.38 74.1458 156.281 74.1979C156.354 74.2344 156.422 74.2708 156.484 74.3073C156.563 74.2813 156.641 74.2552 156.714 74.2344ZM157.75 69.125C157.771 69.1302 157.802 69.0469 157.833 69C157.771 68.974 157.714 68.9323 157.651 68.9271C157.625 68.9219 157.594 68.9948 157.563 69.0365C157.625 69.0677 157.682 69.1094 157.75 69.125ZM157.964 73.9948C158 74.0781 158.026 74.1563 158.057 74.2396C158.089 74.1927 158.12 74.1458 158.151 74.099C158.089 74.0677 158.026 74.0313 157.964 73.9948ZM168.432 61.0208C168.37 61 168.281 61.026 168.203 61.0313C168.255 61.0885 168.297 61.1667 168.359 61.1875C168.422 61.2135 168.51 61.1823 168.583 61.1771C168.536 61.125 168.495 61.0469 168.432 61.0208ZM23.875 75.9688C23.9792 75.9219 24.0886 75.8802 24.1927 75.8333C24.0677 75.875 23.9375 75.9115 23.8125 75.9479C23.8125 75.9479 23.875 75.974 23.875 75.9688Z" fill="#316ECB"/>
</g>
<mask id="mask1_295_97" style="mask-type:luminance" maskUnits="userSpaceOnUse" x="125" y="43" width="20" height="10">
<path d="M125.688 43.4531H144.563V52.3958H125.688V43.4531Z" fill="white"/>
</mask>
<g mask="url(#mask1_295_97)">
<path d="M144.448 43.4531C144.448 48.6302 140.25 52.8333 135.073 52.8333H125.693C125.693 47.651 129.891 43.4531 135.073 43.4531H144.448Z" fill="#316ECB"/>
</g>
</svg>
