<svg xmlns="http://www.w3.org/2000/svg" xmlns:xlink="http://www.w3.org/1999/xlink" width="215" zoomAndPan="magnify" viewBox="0 0 162 149.04" height="189" preserveAspectRatio="xMidYMid meet" version="1.0"><defs><clipPath id="397afca8d2"><path d="M 58.820312 21.027344 L 102.785156 21.027344 L 102.785156 105.234375 L 58.820312 105.234375 Z M 58.820312 21.027344 " clip-rule="nonzero"/></clipPath></defs><g clip-path="url(#397afca8d2)"><path fill="#e1c340" d="M 102.746094 42.992188 C 102.746094 30.863281 92.914062 21.027344 80.78125 21.027344 C 68.652344 21.027344 58.816406 30.863281 58.816406 42.992188 C 58.816406 50.828125 62.921875 57.707031 69.097656 61.59375 L 61.46875 105.511719 L 100.09375 105.511719 L 92.46875 61.59375 C 98.644531 57.707031 102.746094 50.828125 102.746094 42.992188 Z M 102.746094 42.992188 " fill-opacity="1" fill-rule="nonzero"/><path fill="#e1c340" d="M 102.746094 42.992188 C 102.746094 30.863281 92.914062 21.027344 80.78125 21.027344 C 68.652344 21.027344 58.816406 30.863281 58.816406 42.992188 C 58.816406 50.828125 62.921875 57.707031 69.097656 61.59375 L 61.46875 105.511719 L 100.09375 105.511719 L 92.46875 61.59375 C 98.644531 57.707031 102.746094 50.828125 102.746094 42.992188 Z M 102.746094 42.992188 " fill-opacity="1" fill-rule="nonzero"/></g></svg>