<svg width="1123" height="298" viewBox="0 0 1123 298" fill="none" xmlns="http://www.w3.org/2000/svg">
<mask id="mask0_293_275" style="mask-type:luminance" maskUnits="userSpaceOnUse" x="0" y="0" width="588" height="298">
<path d="M588 0H0V297.333H588V0Z" fill="white"/>
</mask>
<g mask="url(#mask0_293_275)">
<mask id="mask1_293_275" style="mask-type:luminance" maskUnits="userSpaceOnUse" x="0" y="53" width="263" height="161">
<path d="M0.213623 53.3333H262.667V213.333H0.213623V53.3333Z" fill="white"/>
</mask>
<g mask="url(#mask1_293_275)">
<path d="M221.53 208.488C229.973 208.488 238.04 203.879 245.738 194.655L247.087 195.78L245.712 194.686C250.056 189.238 253.655 183.977 256.509 178.91L256.546 178.847L256.593 178.785C257.603 177.3 258.108 176.087 258.108 175.139C258.108 174.509 258.004 173.92 257.801 173.368L259.442 172.754L257.863 173.514C256.962 171.649 255.619 170.717 253.827 170.717C252.629 170.717 251.54 171.201 250.577 172.17L249.332 170.925L250.796 171.899C250.431 172.446 249.27 174.3 247.317 177.467C239.192 190.821 231.504 198.201 224.254 199.608L224.061 199.649L223.869 199.639C214.014 199.358 208.046 198.967 205.962 198.472C202.671 197.754 200.207 196.629 198.572 195.097L198.551 195.076L198.525 195.056C196.926 193.457 195.848 191.821 195.296 190.16C194.113 186.806 193.52 183.576 193.52 180.477V180.352L193.535 180.227C193.619 179.655 193.66 177.024 193.66 172.332L194.504 86.2431C194.504 84.5452 194.103 82.3264 193.306 79.5868C192.692 77.566 191.947 75.7691 191.072 74.191L191.056 74.1598L191.035 74.1233C190.275 72.6025 188.462 70.3629 185.593 67.3993L186.848 66.1806L185.707 67.5087C177.983 60.8681 168.207 57.5452 156.379 57.5452C145.197 57.5452 135.879 60.6389 128.436 66.8264L127.317 65.4775L128.53 66.7431C127.29 67.9358 126.353 68.8733 125.718 69.5556C125.426 69.8681 125.207 70.1181 125.061 70.3056C125.009 70.3681 124.978 70.4098 124.962 70.4358C125.009 70.3577 125.051 70.2483 125.087 70.1129L124.296 73.2691L122.093 70.8785C120.988 69.6806 120.207 68.8525 119.754 68.4046C112.337 61.165 102.686 57.5452 90.8061 57.5452C81.4519 57.5452 73.228 60.1025 66.1394 65.2171L66.1134 65.2327L66.0873 65.2535C64.7957 66.1129 63.0769 67.7066 60.9259 70.04L60.405 70.6025H58.4102L57.9259 69.6337C57.7071 69.2014 57.0873 68.3837 56.0561 67.1806C50.5144 60.7587 43.5144 57.5452 35.0613 57.5452C25.5457 57.5452 17.9207 60.5452 12.1811 66.5504L10.9102 65.3368L12.2436 66.4827C6.62899 72.9879 3.8217 81.5452 3.8217 92.1546C3.8217 92.6389 3.93628 93.2691 4.17065 94.04L2.48836 94.5452L4.06649 93.7796C5.06128 95.8316 6.40503 96.8577 8.10295 96.8577H8.66545C9.54566 96.8577 10.4311 96.4827 11.3217 95.7327L11.3998 95.665L11.4832 95.6077C12.2019 95.1285 12.7019 94.191 12.9832 92.7952L14.7019 93.1389H12.9467C12.9467 90.5921 13.1446 88.2848 13.5404 86.2118L15.2644 86.54H13.5092C13.5092 84.8368 14.2019 82.066 15.5769 78.2223L15.5977 78.165L15.6238 78.1129C18.9259 70.5764 25.3113 66.8108 34.7852 66.8108H35.2019C43.2644 66.8108 49.0925 70.8577 52.6759 78.9462L52.7175 79.04L52.7436 79.1337C53.8269 82.5816 54.3686 85.0504 54.3686 86.54V203.644C54.3686 204.613 54.6082 205.467 55.0769 206.212C56.0457 207.727 57.3269 208.488 58.9363 208.488C59.5509 208.488 60.2227 208.342 60.9519 208.05L61.603 209.681L60.7957 208.123C62.6915 207.139 63.6394 205.832 63.6394 204.207V87.1025C63.6394 83.9514 64.6186 80.8316 66.5769 77.7379L66.5925 77.7118L66.6134 77.6858C67.9363 75.7483 69.655 73.9775 71.7696 72.3629L71.8113 72.3316L71.853 72.3056C77.3009 68.6441 83.6186 66.8108 90.8061 66.8108C95.9936 66.8108 100.702 67.6493 104.931 69.3212L104.968 69.3368L104.999 69.3473C114.119 73.4046 118.681 79.6962 118.681 88.2223V203.082C118.681 204.415 118.863 205.352 119.228 205.899L119.254 205.941L119.285 205.988C120.254 207.655 121.483 208.488 122.962 208.488H123.806C124.29 208.488 124.952 208.212 125.78 207.66L126.754 209.118L125.733 207.691C127.207 206.639 127.947 205.431 127.947 204.066L127.806 98.4775V87.665C127.806 83.7066 129.192 79.9306 131.962 76.3421L131.999 76.29L132.04 76.2483C137.634 69.9566 145.697 66.8108 156.238 66.8108H156.52C166.436 66.8108 174.322 69.54 180.186 75.0035L180.233 75.0504L180.28 75.1025C183.582 78.7171 185.233 82.4358 185.233 86.2587V92.4358L184.395 180.774C184.395 184.78 185.108 188.894 186.546 193.108L184.884 193.675L186.514 193.019C188.869 198.863 192.457 202.899 197.28 205.139L197.327 205.165L197.379 205.191C201.421 207.389 207.79 208.488 216.478 208.488H221.53ZM221.53 211.998H216.478C207.192 211.998 200.27 210.759 195.702 208.274L196.54 206.733L195.801 208.326C190.139 205.696 185.957 201.03 183.254 194.332L183.223 194.238C181.66 189.655 180.884 185.155 180.884 180.738L181.723 92.4358V86.2587C181.723 83.3421 180.379 80.415 177.692 77.4723L178.988 76.29L177.79 77.5712C172.603 72.7379 165.514 70.3212 156.52 70.3212H156.238C146.749 70.3212 139.556 73.0712 134.665 78.5764L133.353 77.4098L134.744 78.4827C132.457 81.4462 131.317 84.5035 131.317 87.665V98.4723L131.457 204.066C131.457 206.634 130.228 208.795 127.775 210.55L127.749 210.566L127.728 210.582C126.311 211.524 125.004 211.998 123.806 211.998H122.962C120.139 211.998 117.9 210.587 116.249 207.759L117.764 206.873L116.306 207.847C115.551 206.712 115.171 205.123 115.171 203.082V88.2223C115.171 81.2171 111.306 75.9931 103.577 72.5556L104.285 70.9514L103.639 72.5868C99.8217 71.0764 95.5457 70.3212 90.8061 70.3212C84.3321 70.3212 78.6655 71.9514 73.8165 75.2171L72.8321 73.7639L73.8998 75.1598C72.0821 76.54 70.6186 78.0452 69.5092 79.665L68.0613 78.6754L69.5457 79.6129C67.9467 82.1389 67.1498 84.6337 67.1498 87.1025V204.207C67.1498 207.259 65.5665 209.602 62.4102 211.238L62.3321 211.28L62.254 211.311C61.1082 211.769 60.004 211.998 58.9363 211.998C56.0457 211.998 53.7748 210.696 52.1186 208.097C51.28 206.78 50.8582 205.295 50.8582 203.644V86.54C50.8582 85.4098 50.3738 83.29 49.3946 80.1858L51.0717 79.6598L49.4675 80.3681C46.4988 73.6702 41.7436 70.3212 35.2019 70.3212H34.7852C26.8425 70.3212 21.5248 73.3889 18.8373 79.5191L17.2332 78.816L18.8842 79.4098C17.6394 82.8681 17.0196 85.2431 17.0196 86.54V86.7066L16.9884 86.8681C16.6342 88.7275 16.4571 90.816 16.4571 93.1389V93.3108L16.4259 93.4827C15.9571 95.8316 14.9571 97.5139 13.4311 98.5296L12.4571 97.0712L13.5925 98.4098C12.0457 99.7171 10.405 100.368 8.66545 100.368H8.10295C4.93628 100.368 2.53524 98.6806 0.905029 95.3056L0.847738 95.1806L0.806071 95.0452C0.477946 93.9462 0.311279 92.9827 0.311279 92.1546C0.311279 80.6754 3.39982 71.3525 9.58211 64.191L9.61336 64.1546L9.64461 64.1233C16.0717 57.3993 24.5457 54.0348 35.0613 54.0348C44.5873 54.0348 52.4727 57.6546 58.7227 64.8941C59.9415 66.316 60.7175 67.3733 61.0665 68.0608L59.4936 68.8473V67.0921H59.6342V68.8473L58.3477 67.6546C60.6863 65.1181 62.6186 63.3473 64.1394 62.3316L65.1134 63.79L64.0873 62.3681C71.7852 56.8108 80.6967 54.0348 90.8061 54.0348C103.639 54.0348 114.119 57.9983 122.238 65.9202C122.723 66.4046 123.535 67.2639 124.671 68.4983L123.384 69.691L121.681 69.2639C121.801 68.7848 122.29 68.0816 123.155 67.1598C123.832 66.4306 124.811 65.4514 126.098 64.2118L126.192 64.1285C134.285 57.3993 144.348 54.0348 156.379 54.0348C169.077 54.0348 179.613 57.6389 187.994 64.8473L188.056 64.8993L188.108 64.9566C191.233 68.1754 193.254 70.7066 194.176 72.5556L192.608 73.3421L194.139 72.4879C195.139 74.2796 195.983 76.3212 196.681 78.6077C197.567 81.6702 198.014 84.2275 198.014 86.2743L197.171 172.332C197.171 177.191 197.119 179.988 197.014 180.722L195.275 180.477H197.03C197.03 183.175 197.561 186.035 198.624 189.045C199.004 190.191 199.801 191.363 201.009 192.571L199.77 193.816L200.968 192.53C202.134 193.623 204.072 194.467 206.775 195.056C208.624 195.498 214.353 195.852 223.968 196.134L223.921 197.889L223.582 196.165C229.817 194.951 236.733 188.102 244.332 175.623C246.306 172.42 247.488 170.535 247.874 169.951L247.968 169.811L248.093 169.686C249.744 168.035 251.655 167.207 253.827 167.207C257.087 167.207 259.488 168.8 261.025 171.993L261.061 172.061L261.087 172.139C261.442 173.082 261.619 174.087 261.619 175.139C261.619 176.811 260.91 178.686 259.488 180.764L258.04 179.774L259.567 180.634C256.619 185.863 252.915 191.28 248.462 196.873L248.447 196.889L248.436 196.905C240.035 206.967 231.067 211.998 221.53 211.998Z" fill="#800000"/>
</g>
<path d="M284.439 141.79C280.153 141.79 275.814 142.597 271.423 144.212C267.793 145.54 264.33 147.675 261.033 150.613L259.866 149.306L261.08 150.571C259.017 152.54 257.559 154.175 256.694 155.472C252.585 161.639 250.528 168.097 250.528 174.858V175.701C250.528 183.17 252.887 190.024 257.616 196.264L256.215 197.326L257.559 196.196C264.418 204.389 273.705 208.488 285.418 208.488C289.996 208.488 294.205 207.816 298.043 206.477C306.017 203.556 311.913 198.321 315.725 190.774L316.215 189.811H317.293C325.996 189.811 333.606 187.446 340.132 182.707C340.991 182.102 342.554 180.629 344.814 178.274L346.08 179.493L344.731 178.368C346.798 175.884 347.835 173.967 347.835 172.613C347.835 172.207 347.699 171.696 347.423 171.076C346.611 169.248 345.319 168.332 343.554 168.332H343.413C342.09 168.332 340.949 168.91 339.991 170.076L338.637 168.962L340.205 169.748C339.569 171.024 338.439 172.519 336.824 174.238L336.778 174.29L336.725 174.337C334.606 176.254 332.189 177.764 329.47 178.873L329.434 178.884L329.403 178.899C325.559 180.28 322.788 180.967 321.085 180.967H319.022L319.194 179.05C319.288 178.076 319.33 176.863 319.33 175.42V174.014C319.33 169.134 318.121 164.139 315.71 159.04C314.84 157.222 313.85 155.67 312.736 154.384L312.616 154.243L312.522 154.076C312.059 153.222 310.496 151.597 307.835 149.207L309.012 147.899L307.913 149.269C301.679 144.285 294.465 141.79 286.262 141.79H284.439ZM284.439 138.28H286.262C295.283 138.28 303.231 141.03 310.106 146.53L310.147 146.561L310.184 146.597C313.142 149.259 314.949 151.191 315.606 152.394L314.064 153.238L315.392 152.087C316.71 153.608 317.876 155.425 318.882 157.54C321.522 163.113 322.84 168.602 322.84 174.014V175.42C322.84 176.972 322.793 178.29 322.694 179.373L320.944 179.212V177.457H321.085C322.382 177.457 324.757 176.837 328.215 175.592L328.809 177.248L328.147 175.618C330.481 174.67 332.559 173.373 334.371 171.733L335.548 173.035L334.267 171.832C335.647 170.363 336.58 169.144 337.069 168.175L337.158 167.998L337.283 167.847C338.944 165.826 340.986 164.821 343.413 164.821H343.554C346.84 164.821 349.199 166.431 350.632 169.655C351.106 170.722 351.345 171.707 351.345 172.613C351.345 174.816 350.038 177.483 347.429 180.618L347.387 180.665L347.345 180.707C344.923 183.227 343.21 184.837 342.194 185.545C335.054 190.733 326.751 193.321 317.293 193.321V191.566L318.861 192.363C314.626 200.727 308.074 206.54 299.199 209.795C294.986 211.264 290.392 211.998 285.418 211.998C272.611 211.998 262.429 207.483 254.866 198.451L254.84 198.42L254.814 198.384C249.616 191.519 247.017 183.957 247.017 175.701V174.858C247.017 167.389 249.267 160.28 253.772 153.524C254.778 152.014 256.408 150.186 258.653 148.035L258.694 147.993C262.33 144.754 266.163 142.399 270.21 140.915C274.996 139.16 279.736 138.28 284.439 138.28ZM259.095 175.42C259.095 171.519 259.892 167.774 261.491 164.175L261.522 164.102C264.142 158.868 268.121 155.035 273.465 152.618L273.533 152.587L273.6 152.566C276.694 151.467 278.715 150.92 279.663 150.92H282.97L281.293 153.602C279.595 156.316 278.751 159.092 278.751 161.941V162.222C278.751 163.988 279.09 165.858 279.778 167.821C282.236 174.764 288.59 180.748 298.83 185.78C300.684 186.665 302.632 187.368 304.679 187.905L307.272 188.582L305.616 190.686C300.772 196.842 294.038 199.92 285.418 199.92C278.465 199.92 272.538 198.019 267.637 194.217L267.585 194.181L267.543 194.139C261.908 189.113 259.095 182.873 259.095 175.42ZM262.6 175.42C262.6 181.821 265.028 187.191 269.882 191.524L268.71 192.832L269.788 191.446C274.059 194.759 279.267 196.415 285.418 196.415C292.903 196.415 298.715 193.78 302.856 188.519L304.236 189.602L303.793 191.3C301.533 190.712 299.361 189.92 297.283 188.931C286.184 183.477 279.241 176.826 276.46 168.977C275.647 166.639 275.241 164.384 275.241 162.222V161.941C275.241 158.42 276.267 155.024 278.314 151.743L279.804 152.675V154.431H279.663C279.116 154.431 277.486 154.91 274.772 155.873L274.189 154.217L274.913 155.816C270.33 157.894 266.913 161.181 264.663 165.675L263.095 164.889L264.699 165.602C263.304 168.743 262.6 172.019 262.6 175.42ZM287.314 162.222C287.314 160.613 287.856 159.092 288.929 157.66L288.96 157.623L288.986 157.587C291.21 154.92 293.814 153.587 296.793 153.587C299.059 153.587 301.251 154.649 303.371 156.769C308.298 161.597 310.767 167.582 310.767 174.717C310.767 176.181 310.715 177.41 310.616 178.405L310.46 179.983H308.871C308.376 179.983 307.611 179.879 306.559 179.67L306.429 179.644L306.298 179.597C303.376 178.524 300.595 177.16 297.965 175.504C290.866 170.936 287.314 166.514 287.314 162.222ZM290.824 162.222C290.824 165.233 293.83 168.67 299.835 172.53C302.257 174.056 304.814 175.311 307.507 176.3L306.903 177.946L307.246 176.227C308.069 176.389 308.611 176.472 308.871 176.472V178.227L307.121 178.056C307.21 177.175 307.257 176.066 307.257 174.717C307.257 168.566 305.132 163.41 300.887 159.248C299.455 157.816 298.09 157.097 296.793 157.097C294.908 157.097 293.205 158.009 291.684 159.837L290.335 158.712L291.741 159.764C291.132 160.576 290.824 161.394 290.824 162.222Z" fill="#800000"/>
<path d="M334.705 141.79C332.747 141.79 331.007 142.191 329.486 142.993L328.669 141.441L329.611 142.92C326.783 144.727 325.367 147.274 325.367 150.566C325.367 154.905 327.716 158.269 332.413 160.66L331.617 162.222L332.221 160.576C335.585 161.811 338.283 162.431 340.32 162.431H342.075V164.186C342.075 164.717 341.893 165.17 341.528 165.535C341.163 165.899 340.71 166.082 340.179 166.082V164.326H341.934C341.934 166.243 341.33 168.67 340.117 171.597L340.085 171.675L340.049 171.748C339.341 173.082 338.986 174.165 338.986 174.998V175.139C338.986 175.79 339.096 176.451 339.32 177.113L337.653 177.665L339.184 176.811C340.158 178.55 341.429 179.42 342.992 179.42H343.69C344.476 179.42 345.356 179.004 346.341 178.16L347.481 179.493L346.111 178.394C346.762 177.582 347.335 176.597 347.835 175.431C349.705 170.977 350.643 167.04 350.643 163.629V162.03L352.231 161.879C354.117 161.701 356.002 161.384 357.887 160.936C365.544 159.181 371.518 157.3 375.804 155.295L378.596 153.988L378.294 157.056C377.83 161.774 377.601 166.118 377.601 170.087C377.601 179.748 378.997 187.55 381.788 193.488C386.523 203.488 394.841 208.488 406.736 208.488C412.424 208.488 417.966 206.41 423.356 202.254C424.596 201.28 426.69 199.274 429.627 196.243L430.887 197.467L429.538 196.347C434.429 190.436 438.304 184.951 441.153 179.894L441.2 179.811L441.257 179.733C442.721 177.696 443.455 176.118 443.455 174.998C443.455 174.243 443.137 173.405 442.502 172.488L443.945 171.488L442.559 172.566C441.601 171.332 440.471 170.717 439.174 170.717C437.903 170.717 436.736 171.28 435.679 172.41L434.398 171.207L435.908 172.108C433.544 176.071 431.184 179.759 428.82 183.16C421.075 194.243 413.945 199.785 407.44 199.785H406.877C406.966 199.785 407.038 199.769 407.101 199.738L406.731 199.92H406.315C402.867 199.92 399.663 199.212 396.705 197.785L396.679 197.769L396.648 197.754C389.658 194.056 386.169 184.832 386.169 170.087C386.169 169.576 386.216 168.644 386.309 167.29L388.065 167.415H386.309C386.309 163.04 386.919 155.899 388.148 145.998L389.887 146.217H388.132V145.795C388.132 145.352 388.028 144.852 387.825 144.306L389.466 143.686L387.919 144.519C386.94 142.701 385.679 141.79 384.132 141.79H383.007C382.877 141.79 382.492 141.957 381.861 142.29C381.033 142.727 379.966 143.394 378.669 144.29L378.606 144.332L378.538 144.373C374.309 146.774 368.809 149.024 362.044 151.123L361.992 151.134L361.945 151.149C355.721 152.681 351.882 153.446 350.429 153.446H349.283L347.841 150.149L349.45 149.446L347.94 150.342C344.538 144.644 340.127 141.79 334.705 141.79ZM334.705 138.28C341.455 138.28 346.872 141.701 350.955 148.545L351.012 148.639L352.038 150.988L350.429 151.691V149.936C351.601 149.936 355.158 149.201 361.106 147.738L361.523 149.446L361.007 147.769C367.528 145.748 372.794 143.597 376.804 141.321L377.674 142.847L376.674 141.399C379.69 139.321 381.799 138.28 383.007 138.28H384.132C387.075 138.28 389.372 139.806 391.012 142.858L391.07 142.962L391.111 143.071C391.466 144.019 391.643 144.925 391.643 145.795V146.321L391.627 146.431C390.424 156.186 389.82 163.186 389.82 167.415V167.477L389.815 167.54C389.721 168.811 389.679 169.66 389.679 170.087C389.679 183.42 392.549 191.613 398.294 194.649L397.471 196.201L398.231 194.623C400.705 195.816 403.403 196.415 406.315 196.415V198.165L405.533 196.597C405.966 196.379 406.413 196.274 406.877 196.274H407.44C412.726 196.274 418.893 191.233 425.934 181.16C428.252 177.821 430.57 174.207 432.893 170.311L432.986 170.149L433.117 170.009C434.867 168.139 436.887 167.207 439.174 167.207C441.617 167.207 443.669 168.274 445.33 170.41L445.361 170.451L445.387 170.488C446.44 172.009 446.966 173.509 446.966 174.998C446.966 176.873 446.012 179.134 444.106 181.78L442.684 180.759L444.21 181.618C441.257 186.858 437.268 192.514 432.242 198.587L432.195 198.639L432.148 198.686C429.096 201.832 426.882 203.946 425.502 205.035C419.476 209.675 413.221 211.998 406.736 211.998C393.361 211.998 383.986 206.326 378.611 194.983C375.596 188.566 374.091 180.269 374.091 170.087C374.091 166.004 374.33 161.545 374.804 156.717L376.549 156.884L377.294 158.477C372.778 160.587 366.58 162.545 358.7 164.352C356.658 164.837 354.611 165.181 352.565 165.373L352.398 163.629H354.153C354.153 167.514 353.122 171.91 351.059 176.816C350.44 178.269 349.7 179.53 348.851 180.587L348.752 180.717L348.627 180.826C346.986 182.233 345.341 182.931 343.69 182.931H342.992C340.059 182.931 337.768 181.462 336.122 178.524L336.044 178.379L335.986 178.222C335.648 177.201 335.476 176.17 335.476 175.139V174.998C335.476 173.587 335.966 171.957 336.945 170.108L338.497 170.925L336.877 170.259C337.908 167.759 338.424 165.78 338.424 164.326V162.571H340.179C339.742 162.571 339.367 162.733 339.044 163.05C338.726 163.373 338.565 163.748 338.565 164.186H340.32V165.941C337.867 165.941 334.762 165.254 331.007 163.868L330.913 163.832L330.82 163.785C324.846 160.748 321.856 156.342 321.856 150.566C321.856 145.993 323.815 142.462 327.721 139.962L327.783 139.92L327.851 139.889C329.882 138.816 332.169 138.28 334.705 138.28Z" fill="#800000"/>
<path d="M443.524 56.9827C437.67 56.9827 432.951 59.4983 429.368 64.5296L427.941 63.5139L429.461 64.3889C427.18 68.3316 426.045 71.1754 426.045 72.9202L425.342 128.826L424.498 207.311L423.519 286.649V287.754H421.764L423.508 287.592C423.586 288.451 423.691 289.035 423.81 289.347L422.18 289.998L423.732 289.17C424.805 291.17 426.3 292.175 428.222 292.175C428.831 292.175 429.586 291.983 430.493 291.608L431.17 293.227L430.237 291.738C431.935 290.681 432.784 289.347 432.784 287.754L433.8 204.123L436.269 205.285C440.805 207.42 446.456 208.488 453.211 208.488H454.758C463.112 208.488 471.467 203.592 479.821 193.8L481.154 194.936L479.774 193.858C484.404 187.931 488.196 182.425 491.154 177.347L491.191 177.285L491.232 177.222C492.331 175.655 492.878 174.394 492.878 173.457V173.035C492.878 172.493 492.722 171.936 492.399 171.358C491.415 169.524 490.05 168.613 488.316 168.613H488.034C486.972 168.613 485.946 169.03 484.967 169.873L483.826 168.54L485.17 169.665C484.758 170.16 483.92 171.446 482.654 173.524C472.493 190.748 463.055 199.363 454.336 199.363C446.326 199.363 440.612 197.91 437.196 195.014L437.118 194.946L437.045 194.873C435.607 193.326 434.612 191.951 434.066 190.748L433.904 190.394L434.05 179.608V175.019L436.8 176.925C437.717 177.561 438.602 177.879 439.451 177.879H439.732C441.076 177.879 442.279 177.28 443.331 176.087L444.649 177.248L443.144 176.342C447.014 169.894 450.659 161.764 454.086 151.957L455.743 152.535L454.071 151.993C460.284 132.701 463.394 114.623 463.394 97.7743V95.9462C463.394 84.3212 461.67 74.8316 458.222 67.4879L459.816 66.7431L458.253 67.54C454.644 60.5035 449.737 56.9827 443.524 56.9827ZM443.524 53.4723C451.17 53.4723 457.118 57.6285 461.373 65.941L461.404 65.9931C465.071 73.816 466.904 83.7952 466.904 95.9462V97.7743C466.904 114.993 463.737 133.425 457.409 153.071L457.399 153.113C453.894 163.149 450.149 171.493 446.154 178.149L446.071 178.285L445.967 178.41C444.211 180.394 442.133 181.389 439.732 181.389H439.451C437.873 181.389 436.321 180.863 434.805 179.811L435.805 178.368H437.56L437.555 179.655L437.42 190.045L435.665 190.024L437.258 189.295C437.649 190.155 438.435 191.212 439.612 192.477L438.331 193.675L439.467 192.337C442.227 194.681 447.185 195.852 454.336 195.852C461.717 195.852 470.159 187.8 479.659 171.701C481.014 169.472 481.951 168.045 482.477 167.415L482.571 167.306L482.68 167.207C484.321 165.8 486.107 165.102 488.034 165.102H488.316C491.451 165.102 493.831 166.618 495.467 169.655C496.081 170.764 496.389 171.889 496.389 173.035V173.457C496.389 175.134 495.628 177.061 494.107 179.238L492.67 178.227L494.185 179.113C491.149 184.332 487.269 189.967 482.54 196.019L482.514 196.05L482.493 196.076C473.435 206.691 464.191 211.998 454.758 211.998H453.211C445.93 211.998 439.784 210.821 434.774 208.462L435.524 206.873L437.279 206.894L436.295 287.754C436.295 290.644 434.894 292.967 432.097 294.717L431.977 294.79L431.842 294.847C430.503 295.405 429.295 295.686 428.222 295.686C424.899 295.686 422.373 294.066 420.633 290.826L420.592 290.738L420.555 290.649C420.3 290.024 420.123 289.108 420.014 287.91L420.008 287.832V286.608L420.987 207.274L421.831 128.78L422.534 72.9202C422.534 70.5452 423.831 67.1181 426.42 62.6337L426.461 62.5608L426.508 62.4931C430.79 56.4775 436.461 53.4723 443.524 53.4723ZM435.17 75.165C435.17 74.8941 435.222 74.3889 435.331 73.6546L435.352 73.4983L435.399 73.3473C436.977 68.6129 439.545 66.2483 443.102 66.2483H443.665C446.066 66.2483 448.222 68.1129 450.139 71.8368L450.159 71.8733L450.18 71.915C452.904 77.9514 454.269 86.2848 454.269 96.9306C454.269 111.608 451.81 127.311 446.894 144.04C443.862 153.618 440.774 161.399 437.639 167.389L437.144 168.332H434.185V166.436C434.185 163.144 434.232 159.155 434.331 154.462L435.17 75.1493V75.165ZM438.68 75.1858L437.836 154.535C437.743 159.201 437.696 163.17 437.696 166.436V166.576H435.941V164.821H436.081V166.576L434.529 165.759C437.571 159.957 440.571 152.384 443.524 143.05C448.347 126.644 450.758 111.269 450.758 96.9306C450.758 86.79 449.498 78.9358 446.982 73.3629L448.581 72.6389L447.019 73.441C446.316 72.0764 445.628 71.0764 444.956 70.441C444.472 69.9879 444.045 69.7587 443.665 69.7587H443.102C441.232 69.7587 439.774 71.3264 438.732 74.4566L437.066 73.9046L438.805 74.1493C438.722 74.7223 438.68 75.0608 438.68 75.165V75.1858Z" fill="#800000"/>
<path d="M518.789 141.79C514.502 141.79 510.164 142.597 505.773 144.212C502.143 145.54 498.679 147.675 495.382 150.613L494.216 149.306L495.429 150.571C493.367 152.54 491.908 154.175 491.044 155.472C486.934 161.639 484.877 168.097 484.877 174.858V175.701C484.877 183.17 487.236 190.024 491.966 196.264L490.565 197.326L491.908 196.196C498.768 204.389 508.054 208.488 519.768 208.488C524.346 208.488 528.554 207.816 532.393 206.477C540.367 203.556 546.263 198.321 550.075 190.774L550.565 189.811H551.643C560.346 189.811 567.955 187.446 574.481 182.707C575.341 182.102 576.903 180.629 579.164 178.274L580.429 179.493L579.08 178.368C581.148 175.884 582.184 173.967 582.184 172.613C582.184 172.207 582.049 171.696 581.773 171.076C580.96 169.248 579.669 168.332 577.903 168.332H577.763C576.44 168.332 575.299 168.91 574.341 170.076L572.986 168.962L574.554 169.748C573.919 171.024 572.789 172.519 571.174 174.238L571.127 174.29L571.075 174.337C568.955 176.254 566.539 177.764 563.82 178.873L563.783 178.884L563.752 178.899C559.908 180.28 557.138 180.967 555.434 180.967H553.372L553.544 179.05C553.638 178.076 553.679 176.863 553.679 175.42V174.014C553.679 169.134 552.471 164.139 550.059 159.04C549.19 157.222 548.2 155.67 547.085 154.384L546.966 154.243L546.872 154.076C546.408 153.222 544.846 151.597 542.184 149.207L543.361 147.899L542.263 149.269C536.028 144.285 528.815 141.79 520.611 141.79H518.789ZM518.789 138.28H520.611C529.632 138.28 537.58 141.03 544.455 146.53L544.497 146.561L544.533 146.597C547.492 149.259 549.299 151.191 549.955 152.394L548.414 153.238L549.742 152.087C551.059 153.608 552.226 155.425 553.231 157.54C555.872 163.113 557.19 168.602 557.19 174.014V175.42C557.19 176.972 557.143 178.29 557.044 179.373L555.294 179.212V177.457H555.434C556.731 177.457 559.106 176.837 562.565 175.592L563.158 177.248L562.497 175.618C564.83 174.67 566.908 173.373 568.721 171.733L569.898 173.035L568.617 171.832C569.997 170.363 570.929 169.144 571.419 168.175L571.507 167.998L571.632 167.847C573.294 165.826 575.335 164.821 577.763 164.821H577.903C581.19 164.821 583.549 166.431 584.981 169.655C585.455 170.722 585.695 171.707 585.695 172.613C585.695 174.816 584.388 177.483 581.778 180.618L581.736 180.665L581.695 180.707C579.273 183.227 577.559 184.837 576.544 185.545C569.403 190.733 561.101 193.321 551.643 193.321V191.566L553.21 192.363C548.976 200.727 542.424 206.54 533.549 209.795C529.335 211.264 524.742 211.998 519.768 211.998C506.96 211.998 496.778 207.483 489.216 198.451L489.19 198.42L489.164 198.384C483.966 191.519 481.367 183.957 481.367 175.701V174.858C481.367 167.389 483.617 160.28 488.122 153.524C489.127 152.014 490.757 150.186 493.002 148.035L493.044 147.993C496.679 144.754 500.513 142.399 504.559 140.915C509.346 139.16 514.085 138.28 518.789 138.28ZM493.445 175.42C493.445 171.519 494.242 167.774 495.841 164.175L495.872 164.102C498.492 158.868 502.471 155.035 507.815 152.618L507.882 152.587L507.95 152.566C511.044 151.467 513.065 150.92 514.013 150.92H517.32L515.643 153.602C513.945 156.316 513.101 159.092 513.101 161.941V162.222C513.101 163.988 513.44 165.858 514.127 167.821C516.585 174.764 522.94 180.748 533.179 185.78C535.033 186.665 536.981 187.368 539.028 187.905L541.622 188.582L539.966 190.686C535.122 196.842 528.388 199.92 519.768 199.92C512.815 199.92 506.888 198.019 501.986 194.217L501.934 194.181L501.893 194.139C496.257 189.113 493.445 182.873 493.445 175.42ZM496.95 175.42C496.95 181.821 499.377 187.191 504.231 191.524L503.059 192.832L504.138 191.446C508.408 194.759 513.617 196.415 519.768 196.415C527.252 196.415 533.065 193.78 537.205 188.519L538.585 189.602L538.143 191.3C535.882 190.712 533.71 189.92 531.632 188.931C520.533 183.477 513.591 176.826 510.809 168.977C509.997 166.639 509.591 164.384 509.591 162.222V161.941C509.591 158.42 510.617 155.024 512.664 151.743L514.153 152.675V154.431H514.013C513.466 154.431 511.835 154.91 509.122 155.873L508.539 154.217L509.263 155.816C504.679 157.894 501.263 161.181 499.013 165.675L497.445 164.889L499.049 165.602C497.653 168.743 496.95 172.019 496.95 175.42ZM521.664 162.222C521.664 160.613 522.205 159.092 523.278 157.66L523.309 157.623L523.335 157.587C525.559 154.92 528.164 153.587 531.143 153.587C533.408 153.587 535.601 154.649 537.721 156.769C542.648 161.597 545.117 167.582 545.117 174.717C545.117 176.181 545.065 177.41 544.966 178.405L544.809 179.983H543.221C542.726 179.983 541.96 179.879 540.908 179.67L540.778 179.644L540.648 179.597C537.726 178.524 534.945 177.16 532.315 175.504C525.216 170.936 521.664 166.514 521.664 162.222ZM525.174 162.222C525.174 165.233 528.179 168.67 534.184 172.53C536.606 174.056 539.164 175.311 541.856 176.3L541.252 177.946L541.596 176.227C542.419 176.389 542.96 176.472 543.221 176.472V178.227L541.471 178.056C541.559 177.175 541.606 176.066 541.606 174.717C541.606 168.566 539.481 163.41 535.236 159.248C533.804 157.816 532.44 157.097 531.143 157.097C529.257 157.097 527.554 158.009 526.033 159.837L524.684 158.712L526.091 159.764C525.481 160.576 525.174 161.394 525.174 162.222Z" fill="#800000"/>
<path d="M221.546 210.243C230.53 210.243 239.046 205.425 247.087 195.785C251.488 190.259 255.139 184.92 258.046 179.764C259.264 177.988 259.879 176.446 259.879 175.139C259.879 174.295 259.733 173.493 259.441 172.743C258.233 170.217 256.363 168.951 253.837 168.951C252.155 168.951 250.655 169.613 249.337 170.931C248.962 171.488 247.796 173.358 245.837 176.535C237.962 189.467 230.655 196.587 223.921 197.889C214.181 197.613 208.337 197.238 206.379 196.764C203.379 196.113 201.176 195.129 199.775 193.806C198.368 192.405 197.431 191.004 196.962 189.597C195.837 186.42 195.275 183.379 195.275 180.472C195.368 179.821 195.421 177.108 195.421 172.326C195.421 169.618 195.697 140.931 196.254 86.2639C196.254 84.3889 195.837 82.0035 195.004 79.0973C194.348 76.9462 193.551 75.0243 192.608 73.3264C191.775 71.6493 189.858 69.2639 186.858 66.1806C178.801 59.2535 168.639 55.7848 156.379 55.7848C144.78 55.7848 135.092 59.0139 127.316 65.4723C124.785 67.9046 123.473 69.3056 123.379 69.6806C122.254 68.4723 121.462 67.6337 121.004 67.1598C113.223 59.5764 103.16 55.7848 90.8164 55.7848C81.0768 55.7848 72.5091 58.4514 65.1081 63.7848C63.7018 64.7327 61.8789 66.4202 59.6289 68.8473H59.5039C59.2122 68.2796 58.5091 67.3421 57.3997 66.0348C51.4935 59.2014 44.0508 55.7848 35.0664 55.7848C25.0508 55.7848 17.0039 58.9671 10.9206 65.3264C5.01432 72.1598 2.06641 81.1077 2.06641 92.1598C2.06641 92.816 2.20182 93.6077 2.48307 94.5348C3.80078 97.2587 5.67578 98.6181 8.10807 98.6181H8.67057C9.97266 98.6181 11.2383 98.1077 12.4622 97.0764C13.5872 96.3264 14.3372 95.0139 14.7122 93.1389C14.7122 90.7118 14.8997 88.5087 15.2747 86.5348C15.2747 85.0348 15.9258 82.4618 17.2331 78.8056C20.2331 71.9723 26.0768 68.5556 34.7747 68.5556H35.2122C42.5039 68.5556 47.7852 72.2587 51.0664 79.6598C52.0924 82.941 52.6081 85.2327 52.6081 86.5348V203.639C52.6081 204.962 52.9414 206.134 53.6081 207.16C54.9102 209.217 56.6914 210.243 58.9414 210.243C59.7747 210.243 60.6602 210.056 61.6081 209.681C64.1341 208.379 65.3997 206.55 65.3997 204.201V87.0973C65.3997 84.2952 66.2852 81.4879 68.0664 78.6806C69.2747 76.9046 70.8633 75.2639 72.8372 73.7639C77.9883 70.2952 83.9831 68.5556 90.8164 68.5556C95.7747 68.5556 100.264 69.3577 104.296 70.9514C112.712 74.7014 116.921 80.4618 116.921 88.2223V203.076C116.921 204.774 117.202 206.035 117.775 206.868C119.077 209.118 120.806 210.243 122.962 210.243H123.816C124.65 210.243 125.629 209.868 126.754 209.118C128.723 207.717 129.712 206.03 129.712 204.056C129.613 165.879 129.566 130.681 129.566 98.4723V87.6598C129.566 84.1077 130.827 80.691 133.358 77.4098C138.592 71.5087 146.223 68.5556 156.254 68.5556H156.525C165.983 68.5556 173.467 71.1337 178.983 76.2848C181.983 79.566 183.483 82.8889 183.483 86.2639V92.4306C183.384 95.2379 183.108 124.681 182.65 180.764C182.65 184.972 183.389 189.28 184.879 193.681C187.405 199.946 191.296 204.295 196.546 206.722C200.848 209.071 207.493 210.243 216.483 210.243H221.546Z" fill="#FF3131"/>
<path d="M284.439 140.035C279.939 140.035 275.397 140.879 270.814 142.556C266.981 143.962 263.325 146.212 259.856 149.306C257.7 151.363 256.158 153.092 255.231 154.493C250.924 160.951 248.772 167.743 248.772 174.868V175.701C248.772 183.566 251.252 190.774 256.21 197.326C263.418 205.941 273.153 210.243 285.418 210.243C290.194 210.243 294.595 209.545 298.627 208.139C307.043 205.045 313.262 199.524 317.293 191.576C326.377 191.576 334.335 189.092 341.168 184.118C342.095 183.467 343.736 181.925 346.085 179.493C348.418 176.691 349.585 174.399 349.585 172.618C349.585 171.951 349.397 171.201 349.022 170.368C347.897 167.842 346.075 166.576 343.564 166.576H343.418C341.543 166.576 339.95 167.368 338.647 168.951C338.075 170.076 337.043 171.441 335.543 173.035C333.585 174.816 331.34 176.217 328.814 177.243C325.158 178.55 322.585 179.201 321.085 179.201H320.939C321.033 178.175 321.085 176.91 321.085 175.41V174.014C321.085 168.863 319.819 163.618 317.293 158.285C316.361 156.326 315.283 154.649 314.064 153.243C313.507 152.201 311.819 150.42 309.002 147.889C302.46 142.655 294.882 140.035 286.272 140.035H284.439ZM260.856 175.41C260.856 171.774 261.595 168.264 263.085 164.889C265.528 160.014 269.231 156.462 274.189 154.222C277.09 153.196 278.918 152.681 279.668 152.681H279.814C277.939 155.67 277.002 158.754 277.002 161.931V162.222C277.002 164.181 277.377 166.238 278.127 168.389C280.736 175.795 287.382 182.113 298.064 187.347C300.022 188.295 302.075 189.045 304.231 189.597C299.741 195.306 293.47 198.16 285.418 198.16C278.861 198.16 273.293 196.384 268.71 192.826C263.47 188.149 260.856 182.342 260.856 175.41ZM289.064 162.222C289.064 161.004 289.486 159.826 290.335 158.701C292.21 156.467 294.361 155.347 296.793 155.347C298.569 155.347 300.345 156.238 302.127 158.014C306.71 162.504 309.002 168.071 309.002 174.722C309.002 176.129 308.96 177.295 308.877 178.222C308.502 178.222 307.84 178.134 306.897 177.951C304.09 176.925 301.424 175.613 298.897 174.014C292.34 169.806 289.064 165.879 289.064 162.222Z" fill="#FF3131"/>
<path d="M334.695 140.035C332.46 140.035 330.455 140.504 328.674 141.431C325.299 143.587 323.611 146.629 323.611 150.556C323.611 155.613 326.278 159.504 331.611 162.222C335.169 163.53 338.07 164.181 340.32 164.181C340.32 164.28 340.268 164.326 340.174 164.326C340.174 166.009 339.611 168.212 338.486 170.931C337.653 172.514 337.236 173.868 337.236 174.993V175.139C337.236 175.988 337.377 176.826 337.653 177.66C338.955 180.009 340.736 181.181 342.986 181.181H343.695C344.903 181.181 346.163 180.618 347.486 179.493C348.236 178.566 348.887 177.441 349.445 176.118C351.413 171.441 352.403 167.274 352.403 163.618C354.361 163.441 356.325 163.113 358.299 162.639C366.059 160.863 372.143 158.946 376.549 156.889C376.075 161.67 375.84 166.066 375.84 170.076C375.84 180.009 377.288 188.066 380.195 194.243C385.247 204.91 394.096 210.243 406.736 210.243C412.82 210.243 418.715 208.045 424.424 203.639C425.742 202.613 427.893 200.556 430.882 197.472C435.851 191.472 439.788 185.905 442.695 180.764C444.372 178.42 445.215 176.493 445.215 174.993C445.215 173.868 444.788 172.701 443.945 171.493C442.637 169.8 441.049 168.951 439.174 168.951C437.393 168.951 435.804 169.701 434.403 171.201C432.054 175.134 429.715 178.785 427.382 182.16C419.976 192.743 413.33 198.035 407.445 198.035H406.882C406.684 198.035 406.497 198.076 406.32 198.16C403.137 198.16 400.184 197.509 397.465 196.201C391.101 192.826 387.924 184.118 387.924 170.076C387.924 169.618 387.971 168.733 388.07 167.41C388.07 163.108 388.674 156.045 389.882 146.222V145.785C389.882 145.134 389.742 144.431 389.465 143.681C388.158 141.254 386.382 140.035 384.132 140.035H383.861C383.387 140.035 383.101 140.035 383.007 140.035C382.158 140.035 380.382 140.972 377.674 142.847C373.549 145.181 368.163 147.384 361.528 149.451C355.445 150.941 351.742 151.681 350.424 151.681L349.445 149.451C345.705 143.175 340.788 140.035 334.695 140.035Z" fill="#FF3131"/>
<path d="M443.534 55.2223C437.076 55.2223 431.878 57.9879 427.93 63.5139C425.503 67.7223 424.284 70.8577 424.284 72.9098C424.284 74.691 424.05 93.3212 423.576 128.806L422.743 207.285C422.092 259.061 421.763 285.514 421.763 286.639C421.763 286.722 421.763 287.087 421.763 287.743C421.862 288.785 422.003 289.535 422.18 289.993C423.586 292.618 425.597 293.931 428.222 293.931C429.071 293.931 430.05 293.691 431.159 293.222C433.409 291.816 434.534 289.993 434.534 287.743C435.102 239.535 435.43 212.576 435.513 206.868C440.289 209.118 446.191 210.243 453.222 210.243H454.763C463.649 210.243 472.451 205.139 481.159 194.931C485.836 188.946 489.68 183.379 492.68 178.222C493.982 176.347 494.638 174.759 494.638 173.451V173.035C494.638 172.191 494.399 171.347 493.93 170.514C492.623 168.071 490.753 166.847 488.326 166.847H488.034C486.534 166.847 485.128 167.41 483.826 168.535C483.352 169.108 482.461 170.467 481.159 172.618C471.326 189.274 462.388 197.597 454.347 197.597C446.763 197.597 441.42 196.295 438.326 193.681C437.019 192.28 436.128 191.056 435.659 190.014C435.659 189.181 435.706 185.722 435.805 179.639C435.805 179.545 435.805 179.118 435.805 178.368C437.024 179.217 438.243 179.639 439.451 179.639H439.743C441.602 179.639 443.243 178.842 444.659 177.243C448.586 170.691 452.284 162.451 455.743 152.535C462.019 133.066 465.159 114.806 465.159 97.7639V95.9514C465.159 84.066 463.373 74.3264 459.805 66.7431C455.873 59.066 450.451 55.2223 443.534 55.2223ZM436.93 75.1598C436.93 74.9827 436.977 74.5556 437.076 73.8889C438.378 69.9618 440.388 67.9931 443.097 67.9931H443.659C445.352 67.9931 446.993 69.5452 448.576 72.6389C451.201 78.4462 452.513 86.5452 452.513 96.9306C452.513 111.446 450.076 126.983 445.201 143.535C442.211 152.993 439.17 160.675 436.076 166.576H435.951V166.431C435.951 163.155 435.993 159.175 436.076 154.493C436.644 103.108 436.93 76.6598 436.93 75.1598Z" fill="#FF3131"/>
<path d="M518.788 140.035C514.288 140.035 509.747 140.879 505.163 142.556C501.33 143.962 497.674 146.212 494.205 149.306C492.049 151.363 490.507 153.092 489.58 154.493C485.273 160.951 483.122 167.743 483.122 174.868V175.701C483.122 183.566 485.601 190.774 490.559 197.326C497.768 205.941 507.502 210.243 519.768 210.243C524.544 210.243 528.945 209.545 532.976 208.139C541.393 205.045 547.611 199.524 551.643 191.576C560.726 191.576 568.684 189.092 575.518 184.118C576.445 183.467 578.085 181.925 580.434 179.493C582.768 176.691 583.934 174.399 583.934 172.618C583.934 171.951 583.747 171.201 583.372 170.368C582.247 167.842 580.424 166.576 577.913 166.576H577.768C575.893 166.576 574.299 167.368 572.997 168.951C572.424 170.076 571.393 171.441 569.893 173.035C567.934 174.816 565.69 176.217 563.163 177.243C559.507 178.55 556.934 179.201 555.434 179.201H555.288C555.382 178.175 555.434 176.91 555.434 175.41V174.014C555.434 168.863 554.169 163.618 551.643 158.285C550.71 156.326 549.632 154.649 548.413 153.243C547.856 152.201 546.169 150.42 543.351 147.889C536.809 142.655 529.231 140.035 520.622 140.035H518.788ZM495.205 175.41C495.205 171.774 495.945 168.264 497.434 164.889C499.877 160.014 503.58 156.462 508.538 154.222C511.44 153.196 513.268 152.681 514.018 152.681H514.163C512.288 155.67 511.351 158.754 511.351 161.931V162.222C511.351 164.181 511.726 166.238 512.476 168.389C515.085 175.795 521.731 182.113 532.413 187.347C534.372 188.295 536.424 189.045 538.58 189.597C534.091 195.306 527.82 198.16 519.768 198.16C513.21 198.16 507.643 196.384 503.059 192.826C497.82 188.149 495.205 182.342 495.205 175.41ZM523.413 162.222C523.413 161.004 523.835 159.826 524.684 158.701C526.559 156.467 528.71 155.347 531.143 155.347C532.919 155.347 534.695 156.238 536.476 158.014C541.059 162.504 543.351 168.071 543.351 174.722C543.351 176.129 543.309 177.295 543.226 178.222C542.851 178.222 542.19 178.134 541.247 177.951C538.44 176.925 535.773 175.613 533.247 174.014C526.69 169.806 523.413 165.879 523.413 162.222Z" fill="#FF3131"/>
</g>
<mask id="mask2_293_275" style="mask-type:luminance" maskUnits="userSpaceOnUse" x="557" y="34" width="566" height="233">
<path d="M1122.67 34.6667H557.333V266.667H1122.67V34.6667Z" fill="white"/>
</mask>
<g mask="url(#mask2_293_275)">
<path d="M702.594 222.937C713.974 222.937 723.12 220.724 730.026 216.302L731.568 215.312L735.078 219.328L734.088 220.697C723.963 234.708 711.323 242.484 696.177 244.02C693.052 244.369 690.344 244.541 688.052 244.541C685.802 244.541 683.208 244.453 680.276 244.281C677.245 244.104 673.052 243.317 667.698 241.921C662.422 240.546 657.771 239.135 653.745 237.697C649.724 236.265 645.083 234.369 639.818 232.026C634.562 229.682 630.213 227.625 626.776 225.849L614.615 219.552C609.927 217.125 605.833 215.062 602.333 213.369C598.875 211.697 595.531 210.25 592.302 209.02C583.229 205.375 573.953 203.546 564.479 203.546H562.349V197.593H566.687C569.062 197.593 571.088 196.776 572.776 195.135C574.463 193.489 575.359 191.421 575.448 188.927L577.573 189.005H575.448V94.7704H577.573L575.448 94.8485C575.359 92.3537 574.463 90.286 572.776 88.6402C571.088 86.9995 569.062 86.1818 566.687 86.1818H562.349V80.2287H618.536L617.943 86.1818H614.318C610.802 86.1818 608.172 87.5985 606.432 90.437C605.62 91.7027 605.213 93.1454 605.213 94.7704V193.427C605.213 196.567 605.734 198.635 606.776 199.635C608.005 200.817 609.37 201.645 610.87 202.114C653.307 215.994 683.885 222.937 702.594 222.937ZM702.594 227.192C683.432 227.192 652.432 220.187 609.599 206.171C607.463 205.505 605.542 204.349 603.828 202.697C601.917 200.864 600.963 197.77 600.963 193.427V94.7704C600.963 92.312 601.578 90.1298 602.807 88.2183C605.375 84.0256 609.213 81.9266 614.318 81.9266H616.016V84.0568L613.901 83.8433L614.073 82.1402L616.187 82.3537V84.4787H564.479V82.3537H566.604V84.0568H564.479V81.9266H566.687C570.213 81.9266 573.229 83.1506 575.74 85.5933C578.245 88.0308 579.568 91.062 579.698 94.6923L579.703 94.7339V189.041L579.698 189.083C579.568 192.713 578.245 195.744 575.74 198.182C573.229 200.625 570.213 201.849 566.687 201.849H564.479V199.718H566.604V201.421H564.479V199.296C574.505 199.296 584.281 201.213 593.807 205.046C597.156 206.317 600.615 207.817 604.187 209.541C607.719 211.255 611.844 213.333 616.568 215.776L628.729 222.072C632.094 223.807 636.37 225.833 641.547 228.14C646.713 230.442 651.255 232.296 655.172 233.692C659.083 235.088 663.615 236.463 668.771 237.807C673.854 239.13 677.771 239.875 680.521 240.036C683.375 240.203 685.885 240.286 688.052 240.286C690.187 240.286 692.75 240.125 695.745 239.791C709.63 238.38 721.26 231.187 730.641 218.208L732.365 219.453L730.76 220.854L729.573 219.489L731.172 218.093L732.318 219.88C724.713 224.755 714.802 227.192 702.594 227.192Z" fill="#002557"/>
<path d="M704.807 77.8485C726.328 77.8485 743.474 83.5829 756.235 95.062C769.068 106.599 775.479 122.203 775.479 141.885C775.479 161.572 769.068 177.177 756.235 188.713C743.474 200.192 726.328 205.927 704.807 205.927C683.287 205.927 666.141 200.192 653.375 188.713C640.547 177.177 634.13 161.572 634.13 141.885C634.13 128.906 637.037 117.572 642.854 107.88C648.682 98.161 656.948 90.7183 667.651 85.5412C678.261 80.411 690.646 77.8485 704.807 77.8485ZM704.807 82.0985C691.297 82.0985 679.526 84.5204 669.5 89.3693C659.563 94.1766 651.896 101.078 646.5 110.067C641.089 119.088 638.386 129.692 638.386 141.885C638.386 160.307 644.328 174.859 656.219 185.552C668.177 196.302 684.37 201.677 704.807 201.677C725.24 201.677 741.438 196.302 753.391 185.552C765.281 174.859 771.229 160.307 771.229 141.885C771.229 123.468 765.281 108.911 753.391 98.2235C741.438 87.4735 725.24 82.0985 704.807 82.0985ZM676.828 180.677C683.719 189.911 693.042 194.531 704.807 194.531C716.568 194.531 725.896 189.911 732.781 180.677C739.818 171.244 743.333 158.312 743.333 141.885C743.333 131.046 741.74 121.614 738.552 113.588C735.417 105.692 730.953 99.6558 725.162 95.4735C719.412 91.3173 712.625 89.2443 704.807 89.2443C693.042 89.2443 683.719 93.8641 676.828 103.099C669.797 112.531 666.281 125.463 666.281 141.885C666.281 158.312 669.797 171.244 676.828 180.677ZM673.422 183.218C665.823 173.031 662.026 159.255 662.026 141.885C662.026 124.52 665.823 110.744 673.422 100.557C681.162 90.1818 691.62 84.9891 704.807 84.9891C713.542 84.9891 721.156 87.3381 727.651 92.0256C734.11 96.6923 739.063 103.354 742.5 112.015C745.891 120.546 747.583 130.505 747.583 141.885C747.583 159.255 743.787 173.031 736.193 183.218C728.453 193.593 717.99 198.786 704.807 198.786C691.62 198.786 681.162 193.593 673.422 183.218Z" fill="#002557"/>
<path d="M918.784 148.265H916.232C914.049 148.265 912.419 148.739 911.351 149.687C910.351 150.567 909.857 151.937 909.857 153.796V182.578L909.419 183.151C904.773 189.229 897.174 194.552 886.633 199.119C876.159 203.661 864.424 205.927 851.43 205.927C831.471 205.927 815.419 200.151 803.268 188.588C791.091 177 785.002 161.406 785.002 141.802C785.002 122.197 791.096 106.63 803.273 95.0985C815.419 83.5985 831.81 77.8485 852.45 77.8485C861.664 77.8485 870.596 78.7391 879.242 80.5256C887.93 82.3225 894.966 84.5673 900.346 87.2548L901.508 87.8381L901.888 120.541H896.57L896.148 118.963C893.336 108.468 888.57 100.901 881.857 96.2652C875.075 91.5829 866.976 89.2443 857.549 89.2443C844.539 89.2443 834.56 93.8641 827.612 103.109C820.528 112.536 816.982 125.552 816.982 142.14C816.982 158.76 820.226 171.708 826.721 180.979C833.044 190.015 842.018 194.531 853.638 194.531C862.075 194.531 869.101 192.151 874.716 187.385C877.383 185.02 879.336 182.244 880.57 179.052L882.555 179.817H880.43V153.796C880.43 151.953 879.914 150.593 878.877 149.713C877.747 148.75 876.023 148.265 873.711 148.265H868.862V142.312H920.914V148.265H918.784ZM918.784 144.015V146.14H916.659V144.437H918.784V146.567H870.987V144.437H873.117V146.14H870.987V144.015H873.711C877.065 144.015 879.711 144.833 881.638 146.479C883.669 148.208 884.68 150.645 884.68 153.796V180.218L884.539 180.588C883.055 184.421 880.695 187.77 877.466 190.625C871.06 196.067 863.117 198.786 853.638 198.786C840.539 198.786 830.403 193.661 823.237 183.421C816.232 173.416 812.732 159.656 812.732 142.14C812.732 124.604 816.56 110.739 824.211 100.552C832.008 90.1766 843.122 84.9891 857.549 84.9891C867.857 84.9891 876.768 87.5829 884.273 92.7652C891.846 97.9943 897.174 106.359 900.258 117.864L898.206 118.416V116.286H899.737V118.416L897.607 118.437L897.268 89.1818L899.393 89.1558L898.445 91.0568C893.393 88.536 886.706 86.411 878.383 84.6923C870.018 82.9631 861.372 82.0985 852.45 82.0985C832.94 82.0985 817.523 87.4631 806.195 98.187C794.903 108.88 789.258 123.416 789.258 141.802C789.258 160.187 794.903 174.755 806.2 185.51C817.528 196.286 832.601 201.677 851.43 201.677C863.836 201.677 875.008 199.526 884.94 195.218C894.81 190.942 901.841 186.057 906.039 180.567L907.732 181.859H905.601V153.796C905.601 150.661 906.581 148.229 908.534 146.505C910.409 144.843 912.976 144.015 916.232 144.015H918.784Z" fill="#002557"/>
<path d="M931.03 197.593C933.394 197.593 935.415 196.755 937.097 195.072C938.801 193.364 939.702 191.317 939.79 188.921L941.915 189.005H939.79V94.5985H941.915L939.79 94.6818C939.702 92.3016 938.811 90.286 937.118 88.6402C935.431 86.9995 933.405 86.1818 931.03 86.1818H926.691V80.2287H982.879L982.285 86.1818H978.316C975.936 86.1818 973.868 87.0048 972.123 88.661C970.415 90.2808 969.556 92.26 969.556 94.5985V189.005C969.556 191.354 970.42 193.369 972.144 195.052C973.889 196.744 975.946 197.593 978.316 197.593H982.285L982.879 203.546H926.691V197.593H931.03ZM931.03 201.849H928.821V199.718H930.946V201.421H928.821V199.296H980.53V201.421L978.415 201.635L978.243 199.932L980.358 199.718V201.849H978.316C974.795 201.849 971.748 200.599 969.181 198.099C966.597 195.583 965.306 192.552 965.306 189.005V94.5985C965.306 91.0412 966.603 88.0308 969.202 85.5725C971.764 83.1454 974.806 81.9266 978.316 81.9266H980.358V84.0568L978.243 83.8433L978.415 82.1402L980.53 82.3537V84.4787H928.821V82.3537H930.946V84.0568H928.821V81.9266H931.03C934.556 81.9266 937.571 83.1506 940.082 85.5933C942.587 88.0308 943.905 91.0048 944.04 94.5204L944.045 94.562V189.046L944.04 189.088C943.905 192.588 942.592 195.588 940.103 198.078C937.592 200.588 934.566 201.849 931.03 201.849Z" fill="#002557"/>
<path d="M1065.23 205.843C1042.81 205.786 1025.17 200.083 1012.29 188.729C999.337 177.307 992.858 161.692 992.858 141.885C992.858 122.088 999.275 106.453 1012.11 94.9735C1024.87 83.5568 1042.3 77.8485 1064.38 77.8485C1081.18 77.8485 1095.62 80.9891 1107.72 87.2704L1108.85 87.8589L1109.23 120.541H1104.1L1103.67 118.984C1100.9 108.994 1096.4 101.536 1090.15 96.6089C1083.94 91.6975 1075.92 89.2443 1066.09 89.2443C1053.38 89.2443 1043.36 93.8225 1036.02 102.989C1028.57 112.296 1024.84 125.093 1024.84 141.38C1024.84 157.687 1028.41 170.583 1035.55 180.072C1042.57 189.39 1052.09 194.213 1064.1 194.531L1064.05 196.661V194.531C1076.63 194.531 1086.18 191.437 1092.69 185.255C1099.37 178.781 1104.03 167.5 1106.68 151.406L1106.98 149.625H1112.15L1114 181.546L1113.66 182.109C1104.06 197.989 1087.92 205.901 1065.23 205.843ZM1065.24 201.593C1086.33 201.645 1101.25 194.421 1110.02 179.911L1111.84 181.01L1109.72 181.135L1108.02 151.875L1110.14 151.755V153.88H1108.78V151.755L1110.88 152.099C1108.08 169.119 1102.99 181.197 1095.62 188.333C1088.29 195.302 1077.76 198.786 1064.05 198.786H1063.99C1050.6 198.427 1039.99 193.041 1032.15 182.63C1024.44 172.385 1020.59 158.635 1020.59 141.38C1020.59 124.099 1024.62 110.416 1032.7 100.328C1040.9 90.1037 1052.02 84.9891 1066.09 84.9891C1076.9 84.9891 1085.8 87.7495 1092.79 93.2704C1099.76 98.7756 1104.75 106.968 1107.77 117.849L1105.72 118.416V116.286H1107.08V118.416L1104.95 118.437L1104.61 89.1818L1106.74 89.1558L1105.76 91.0464C1094.27 85.0829 1080.48 82.0985 1064.38 82.0985C1043.38 82.0985 1026.9 87.4475 1014.95 98.1402C1003.06 108.776 997.113 123.359 997.113 141.885C997.113 160.411 1003.11 174.963 1015.1 185.536C1027.18 196.187 1043.89 201.536 1065.24 201.593Z" fill="#002557"/>
<path d="M702.604 225.067C714.396 225.067 723.922 222.739 731.187 218.088L732.375 219.442C722.625 232.942 710.484 240.427 695.958 241.901C692.901 242.244 690.271 242.421 688.062 242.421C685.854 242.421 683.297 242.328 680.396 242.151C677.505 241.984 673.448 241.218 668.229 239.859C663.021 238.494 658.427 237.109 654.458 235.692C650.484 234.276 645.885 232.401 640.667 230.067C635.458 227.744 631.151 225.703 627.75 223.942C624.344 222.192 620.292 220.093 615.583 217.651C610.885 215.218 606.776 213.151 603.25 211.442C599.734 209.744 596.338 208.276 593.062 207.026C583.755 203.286 574.229 201.421 564.479 201.421V199.713H566.687C569.63 199.713 572.151 198.692 574.25 196.651C576.344 194.609 577.458 192.062 577.583 189.005V94.7756C577.458 91.7079 576.344 89.1506 574.25 87.1089C572.151 85.0673 569.63 84.0464 566.687 84.0464H564.479V82.3589H616.187L616.021 84.0464H614.312C610.005 84.0464 606.776 85.8068 604.625 89.3173C603.594 90.9162 603.083 92.7339 603.083 94.7756V193.421C603.083 197.171 603.818 199.755 605.292 201.171C606.776 202.588 608.422 203.578 610.229 204.151C652.864 218.093 683.656 225.067 702.604 225.067Z" fill="#004AAD"/>
<path d="M704.818 79.9631C725.787 79.9631 742.453 85.5256 754.818 96.6506C767.177 107.765 773.36 122.849 773.36 141.901C773.36 160.942 767.177 176.02 754.818 187.13C742.453 198.244 725.781 203.796 704.797 203.796C683.823 203.796 667.156 198.244 654.797 187.13C642.432 176.02 636.255 160.937 636.255 141.88C636.255 129.296 639.057 118.333 644.672 108.984C650.281 99.6245 658.245 92.4527 668.568 87.4631C678.886 82.4631 690.969 79.9631 704.818 79.9631ZM675.11 181.942C682.427 191.75 692.323 196.651 704.797 196.651C717.281 196.651 727.177 191.75 734.485 181.942C741.802 172.14 745.464 158.786 745.464 141.88C745.464 130.77 743.818 121.078 740.526 112.796C737.235 104.52 732.526 98.1714 726.401 93.7548C720.287 89.3277 713.094 87.1089 704.818 87.1089C692.328 87.1089 682.427 92.0204 675.11 101.838C667.802 111.645 664.151 125 664.151 141.901C664.151 158.791 667.802 172.14 675.11 181.942Z" fill="#004AAD"/>
<path d="M918.789 146.13H916.248C913.524 146.13 911.419 146.786 909.935 148.088C908.461 149.395 907.727 151.296 907.727 153.796V181.859C903.31 187.64 895.998 192.744 885.789 197.171C875.581 201.588 864.128 203.796 851.435 203.796C832.044 203.796 816.477 198.213 804.727 187.046C792.987 175.88 787.123 160.807 787.123 141.817C787.123 122.817 792.987 107.765 804.727 96.6506C816.477 85.5256 832.383 79.9631 852.456 79.9631C861.524 79.9631 870.31 80.8485 878.81 82.6089C887.32 84.3589 894.185 86.5412 899.393 89.1506L899.748 118.401H898.206C895.258 107.401 890.211 99.437 883.06 94.5048C875.919 89.5777 867.419 87.1089 857.56 87.1089C843.836 87.1089 833.289 92.0204 825.914 101.838C818.539 111.645 814.852 125.083 814.852 142.151C814.852 159.208 818.227 172.557 824.977 182.192C831.727 191.833 841.279 196.651 853.643 196.651C862.602 196.651 870.086 194.104 876.102 189.005C879.044 186.395 881.195 183.333 882.56 179.817V153.796C882.56 151.296 881.794 149.395 880.268 148.088C878.737 146.786 876.55 146.13 873.706 146.13H870.998V144.442H918.789V146.13Z" fill="#004AAD"/>
<path d="M931.03 199.713C933.972 199.713 936.493 198.666 938.592 196.567C940.686 194.474 941.801 191.953 941.926 189.005V94.5881C941.801 91.6454 940.686 89.1506 938.592 87.1089C936.493 85.0673 933.972 84.0464 931.03 84.0464H928.821V82.3589H980.53L980.363 84.0464H978.321C975.373 84.0464 972.821 85.0673 970.655 87.1089C968.498 89.1506 967.426 91.6454 967.426 94.5881V189.005C967.426 191.953 968.498 194.474 970.655 196.567C972.821 198.666 975.373 199.713 978.321 199.713H980.363L980.53 201.421H928.821V199.713H931.03Z" fill="#004AAD"/>
<path d="M1065.23 203.713C1043.35 203.656 1026.17 198.13 1013.69 187.13C1001.21 176.13 994.978 161.046 994.978 141.88C994.978 122.713 1001.15 107.604 1013.52 96.5464C1025.88 85.4943 1042.84 79.9631 1064.39 79.9631C1080.84 79.9631 1094.96 83.0256 1106.75 89.1506L1107.08 118.401H1105.73C1099.94 97.5412 1086.72 87.1089 1066.08 87.1089C1052.71 87.1089 1042.13 91.9579 1034.35 101.651C1026.59 111.349 1022.71 124.588 1022.71 141.38C1022.71 158.161 1026.42 171.484 1033.85 181.359C1041.28 191.224 1051.34 196.317 1064.04 196.651C1077.21 196.651 1087.25 193.369 1094.17 186.796C1101.19 179.994 1106.07 168.312 1108.79 151.755H1110.14L1111.85 181.005C1102.65 196.203 1087.11 203.765 1065.23 203.713Z" fill="#004AAD"/>
</g>
</svg>
